<svg xmlns="http://www.w3.org/2000/svg" xmlns:xlink="http://www.w3.org/1999/xlink" viewBox="0 0 600 119.33"><defs><style>.cls-1{fill:none;}.cls-2{isolation:isolate;}.cls-3{fill:#aba0cb;}.cls-4{fill:#fff;}.cls-5{fill:#eee;}.cls-6{fill:#ccc;}.cls-7{fill:#ffde00;}.cls-8{opacity:0.5;mix-blend-mode:multiply;}.cls-9{clip-path:url(#clip-path);}.cls-10{fill:#f8f6e9;}.cls-11{fill:#f8f5e8;}.cls-12{fill:#f7f5e7;}.cls-13{fill:#f7f4e6;}.cls-14{fill:#f7f4e5;}.cls-15{fill:#f6f4e4;}.cls-16{fill:#f6f3e3;}.cls-17{fill:#f6f3e2;}.cls-18{fill:#f5f2e1;}.cls-19{fill:#f5f2e0;}.cls-20{fill:#f5f1df;}.cls-21{fill:#f4f1de;}.cls-22{fill:#f4f1dd;}.cls-23{fill:#f4f0dc;}.cls-24{fill:#f3f0db;}.cls-25{fill:#f3efda;}.cls-26{fill:#f3efd9;}.cls-27{fill:#f2efd8;}.cls-28{fill:#f2eed7;}.cls-29{fill:#f2eed6;}.cls-30{fill:#f1edd5;}.cls-31{fill:#f1edd4;}.cls-32{fill:#f1ecd3;}.cls-33{fill:#f1ecd2;}.cls-34{fill:#f0ecd1;}.cls-35{fill:#f0ebd0;}.cls-36{fill:#f0ebcf;}.cls-37{fill:#efeace;}.cls-38{fill:#efeacd;}.cls-39{fill:#efe9cc;}.cls-40{fill:#eee9cb;}.cls-41{fill:#eee9ca;}.cls-42{fill:#eee8c9;}.cls-43{fill:#ede8c8;}.cls-44{fill:#ede7c7;}.cls-45{fill:#ede7c6;}.cls-46{fill:#ece6c5;}.cls-47{fill:#ece6c4;}.cls-48{fill:#ece6c3;}.cls-49{fill:#ebe5c2;}.cls-50{fill:#ebe5c1;}.cls-51{fill:#ebe4c0;}.cls-52{fill:#eae4bf;}.cls-53{fill:#eae4be;}.cls-54{fill:#eae3bd;}.cls-55{fill:#e9e3bc;}.cls-56{fill:#e9e2bb;}.cls-57{fill:#e9e2ba;}.cls-58{fill:#e8e1b9;}.cls-59{fill:#e8e1b8;}.cls-60{fill:#e8e1b7;}.cls-61{fill:#e7e0b6;}.cls-62{fill:#e7e0b5;}.cls-63{fill:#e7dfb4;}.cls-64{fill:#e7dfb3;}.cls-65{fill:#e6deb2;}.cls-66{fill:#e6deb1;}.cls-67{fill:#e6deb0;}.cls-68{fill:#e5ddaf;}.cls-69{fill:#e5ddae;}.cls-70{fill:#e5dcad;}.cls-71{fill:#e4dcac;}.cls-72{fill:#e4dbab;}.cls-73{fill:#e4dbaa;}.cls-74{fill:#e3dba9;}.cls-75{fill:#e3daa8;}.cls-76{fill:#e3daa7;}.cls-77{fill:#e2d9a6;}.cls-78{fill:#e2d9a5;}.cls-79{fill:#e2d9a4;}.cls-80{fill:#e1d8a3;}.cls-81{fill:#e1d8a2;}.cls-82{fill:#e1d7a1;}.cls-83{fill:#e0d7a0;}.cls-84{fill:#e0d69f;}.cls-85{fill:#e0d69e;}.cls-86{fill:#dfd69d;}.cls-87{fill:#dfd59c;}.cls-88{fill:#dfd59b;}.cls-89{fill:#ded49a;}.cls-90{fill:#ded499;}.cls-91{fill:#ded398;}.cls-92{fill:#ded397;}.cls-93{fill:#ddd395;}.cls-94{fill:#ddd294;}.cls-95{fill:#ddd293;}.cls-96{fill:#dcd192;}.cls-97{fill:#dcd191;}.cls-98{fill:#dcd090;}.cls-99{fill:#dbd08f;}.cls-100{fill:#dbd08e;}.cls-101{fill:#dbcf8d;}.cls-102{fill:#dacf8c;}.cls-103{fill:#dace8b;}.cls-104{fill:#dace8a;}.cls-105{fill:#d9ce89;}.cls-106{fill:#d9cd88;}.cls-107{fill:#d9cd87;}.cls-108{fill:#d8cc86;}.cls-109{fill:#d8cc85;}.cls-110{fill:#d8cb84;}.cls-111{fill:#d7cb83;}.cls-112{fill:#d7cb82;}.cls-113{fill:#d7ca81;}.cls-114{fill:#d6ca80;}.cls-115{fill:#d6c97f;}.cls-116{fill:#d6c97e;}.cls-117{fill:#d5c87d;}.cls-118{fill:#d5c87c;}.cls-119{fill:#d5c87b;}.cls-120{fill:#d4c77a;}.cls-121{fill:#d4c779;}.cls-122{fill:#d4c678;}.cls-123{fill:#d4c677;}.cls-124{fill:#d3c576;}.cls-125{fill:#d3c575;}.cls-126{fill:#222;}.cls-127{fill:#333;}.cls-128{clip-path:url(#clip-path-2);}.cls-129{fill:#feffff;}.cls-130{fill:#fdfeff;}.cls-131{fill:#fcfeff;}.cls-132{fill:#fbfefe;}.cls-133{fill:#fafdfe;}.cls-134{fill:#f9fdfe;}.cls-135{fill:#f8fdfe;}.cls-136{fill:#f7fdfe;}.cls-137{fill:#f6fcfe;}.cls-138{fill:#f5fcfe;}.cls-139{fill:#f4fcfd;}.cls-140{fill:#f3fbfd;}.cls-141{fill:#f2fbfd;}.cls-142{fill:#f1fbfd;}.cls-143{fill:#f0fafd;}.cls-144{fill:#effafd;}.cls-145{fill:#eefafd;}.cls-146{fill:#edf9fc;}.cls-147{fill:#ecf9fc;}.cls-148{fill:#ebf9fc;}.cls-149{fill:#eaf9fc;}.cls-150{fill:#e8f8fc;}.cls-151{fill:#e7f8fc;}.cls-152{fill:#e6f8fc;}.cls-153{fill:#e5f7fb;}.cls-154{fill:#e4f7fb;}.cls-155{fill:#e3f7fb;}.cls-156{fill:#e2f6fb;}.cls-157{fill:#e1f6fb;}.cls-158{fill:#e0f6fb;}.cls-159{fill:#dff5fb;}.cls-160{fill:#def5fa;}.cls-161{fill:#ddf5fa;}.cls-162{fill:#dcf4fa;}.cls-163{fill:#dbf4fa;}.cls-164{fill:#daf4fa;}.cls-165{fill:#d9f4fa;}.cls-166{fill:#d8f3fa;}.cls-167{fill:#d7f3f9;}.cls-168{fill:#d6f3f9;}.cls-169{fill:#d5f2f9;}.cls-170{fill:#d4f2f9;}.cls-171{clip-path:url(#clip-path-3);}.cls-172{clip-path:url(#clip-path-4);}.cls-173{fill:#a7c1c9;}</style><clipPath id="clip-path"><path class="cls-1" d="M123.64,61.92a2.5,2.5,0,0,1-2.83-1.54c-1.78-4.54-6.19-4-8.39-4l-35.77,0A14.8,14.8,0,0,0,75,60.14L70,76.36H198.48V65.13h3.74V56.41C153.67,56.6,130.52,60.49,123.64,61.92Z"/></clipPath><clipPath id="clip-path-2"><path class="cls-1" d="M137.08,51.41h16.65c1.82,0,2.86-2.35,1.77-4,0,0-8-9.85-8.75-10.61a4.22,4.22,0,0,0-2.34-1.31c-2-.2-4-0.14-7.25-0.2a2.37,2.37,0,0,0-2.29,2.49V48.92A2.36,2.36,0,0,0,137.08,51.41Z"/></clipPath><clipPath id="clip-path-3"><path class="cls-1" d="M130.1,37.59a2.37,2.37,0,0,0-2.18-2.5q-2.2,0-4.57,0c-3.24,0-6.17.07-8.8,0.17a2.37,2.37,0,0,0-2.12,2.49V48.92a2.36,2.36,0,0,0,2.21,2.49h13.26a2.36,2.36,0,0,0,2.21-2.49V37.59Z"/></clipPath><clipPath id="clip-path-4"><path class="cls-1" d="M107.44,38.33A2.34,2.34,0,0,0,105,35.85l-1.65.17a16.55,16.55,0,0,0-12.7,9.36l-1.16,2.31c-0.84,1.66.22,3.73,1.92,3.73h13.79a2.36,2.36,0,0,0,2.21-2.49V38.33Z"/></clipPath></defs><title>libretaxi-r5-banner-on-color-background</title><g class="cls-2"><g id="Layer_2" data-name="Layer 2"><rect class="cls-3" width="600" height="119.33"/></g><g id="Layer_1" data-name="Layer 1"><path class="cls-4" d="M247.28,69.58h8.58A1.29,1.29,0,0,1,257.31,71v3.21a1.29,1.29,0,0,1-1.46,1.46H242.61a1.29,1.29,0,0,1-1.46-1.46v-21a1.29,1.29,0,0,1,1.46-1.46h3.21a1.29,1.29,0,0,1,1.46,1.46V69.58Z"/><path class="cls-4" d="M279,51.73a1.29,1.29,0,0,1,1.46,1.46v21A1.29,1.29,0,0,1,279,75.7h-3.21a1.29,1.29,0,0,1-1.46-1.46v-21a1.29,1.29,0,0,1,1.46-1.46H279Z"/><path class="cls-4" d="M299.41,75.7A1.29,1.29,0,0,1,298,74.24v-21a1.29,1.29,0,0,1,1.46-1.46h9a7.71,7.71,0,0,1,5.18,1.81,7.24,7.24,0,0,1,1.59,1.88,7,7,0,0,1,.78,3.4v0a5.54,5.54,0,0,1-.74,2.69A3.11,3.11,0,0,1,313.72,63a4.48,4.48,0,0,1,2,1.39,6.25,6.25,0,0,1,1.55,3.69,7.83,7.83,0,0,1-.52,3.17,7.2,7.2,0,0,1-2.3,3,7.1,7.1,0,0,1-4.37,1.36H299.41Zm4.37-18.52v4h4.31a2.46,2.46,0,0,0,1.46-.49,1.81,1.81,0,0,0,.71-1.42,1.87,1.87,0,0,0-1.85-2.11h-4.63Zm0,9v4h5.31a1.9,1.9,0,0,0,2.1-2c0-1.39-.87-2-2.3-2h-5.12Z"/><path class="cls-4" d="M352.84,59.6a7.9,7.9,0,0,1-2.72,6.18,3.08,3.08,0,0,1-.68.45,3.28,3.28,0,0,0-.39.16L353.26,74c0.62,1,0,1.68-1.13,1.68h-3.56a1.7,1.7,0,0,1-1.68-1.13l-3.82-7.41h-2.95v7.09a1.29,1.29,0,0,1-1.46,1.46h-3.21A1.29,1.29,0,0,1,334,74.24v-21a1.29,1.29,0,0,1,1.46-1.46h9.84a7.65,7.65,0,0,1,5.18,1.81,7.27,7.27,0,0,1,1.59,2.27A9.49,9.49,0,0,1,352.84,59.6Zm-5.93,0a1.81,1.81,0,0,0-1.94-2h-4.86v4h4.63A2.06,2.06,0,0,0,346.91,59.6Z"/><path class="cls-4" d="M386.58,74.24a1.29,1.29,0,0,1-1.46,1.46H371.23a1.29,1.29,0,0,1-1.46-1.46v-21a1.29,1.29,0,0,1,1.46-1.46h13.89a1.29,1.29,0,0,1,1.46,1.46V56.4a1.29,1.29,0,0,1-1.46,1.46H375.9v3h6.8a1.29,1.29,0,0,1,1.46,1.46v2.75a1.29,1.29,0,0,1-1.46,1.46h-6.8v3h9.23A1.29,1.29,0,0,1,386.58,71v3.21Z"/><path class="cls-4" d="M410.8,75.7a1.29,1.29,0,0,1-1.46-1.46V57.85h-5a1.29,1.29,0,0,1-1.46-1.46V53.19a1.29,1.29,0,0,1,1.46-1.46h16.09a1.29,1.29,0,0,1,1.46,1.46V56.4a1.29,1.29,0,0,1-1.46,1.46h-5V74.24A1.29,1.29,0,0,1,414,75.7H410.8Z"/><path class="cls-4" d="M447.4,51.73a1.67,1.67,0,0,1,1.68,1.17L456.46,74a1.12,1.12,0,0,1-1.2,1.68H451.8a1.58,1.58,0,0,1-1.65-1.2l-1-2.95H442l-1,2.95a1.64,1.64,0,0,1-1.68,1.2h-3.5a1.12,1.12,0,0,1-1.2-1.68l7.41-21.11a1.63,1.63,0,0,1,1.65-1.17h3.69Zm0.39,14.51-2.23-6.64-2,6.64h4.27Z"/><path class="cls-4" d="M483.79,58.18l3.72-5.51a2.07,2.07,0,0,1,1.78-.94h4.14c1.2,0,1.62.78,0.94,1.78l-6.9,10.1,7,10.3c0.68,1,.26,1.78-0.94,1.78H489.4a2.07,2.07,0,0,1-1.78-.94l-3.82-5.67-3.85,5.67a2.07,2.07,0,0,1-1.78.94H474c-1.2,0-1.62-.78-0.94-1.78l7-10.3-6.9-10.1c-0.68-1-.26-1.78.94-1.78h4.14a2.07,2.07,0,0,1,1.78.94Z"/><path class="cls-4" d="M516.37,51.73a1.29,1.29,0,0,1,1.46,1.46v21a1.29,1.29,0,0,1-1.46,1.46h-3.21a1.29,1.29,0,0,1-1.46-1.46v-21a1.29,1.29,0,0,1,1.46-1.46h3.21Z"/><path class="cls-5" d="M202.23,56.41H206v7.48h-3.74"/><path d="M206,65.13h-3.74V62.64h2.49v-5h-2.49V55.16H206a1.25,1.25,0,0,1,1.25,1.25v7.48A1.25,1.25,0,0,1,206,65.13Z"/><path class="cls-6" d="M202.23,61.15v2.74H206V61.14h-3.74Z"/><path class="cls-6" d="M202.23,59.65v1H206v-1h-3.74Z"/><path d="M206,65.13h-3.74V62.64h2.49v-5h-2.49V55.16H206a1.25,1.25,0,0,1,1.25,1.25v7.48A1.25,1.25,0,0,1,206,65.13Z"/><path class="cls-7" d="M199.82,55.16a6.89,6.89,0,0,0-5.63-5.73c-10.36-1.45-14.17-1.88-33.12-3L149.84,32.71a6.58,6.58,0,0,0-5-2.49H104.94A21.7,21.7,0,0,0,85.42,42.81C83.61,47.28,81.64,52,81.64,52h0.05C76.57,54,75,60.14,75,60.14L70,76.36H198.48V65.13h3.74v-10h-2.41Z"/><g class="cls-8"><g class="cls-9"><polygon class="cls-10" points="70.18 76.33 202.31 76.33 202.31 76.33 70.18 76.33 70.18 76.33"/><polygon class="cls-11" points="70.17 76.33 202.37 76.33 202.37 76.33 70.17 76.33 70.17 76.33"/><rect class="cls-12" x="70" y="75.33" width="132" height="1"/><polygon class="cls-13" points="70.17 75.33 202.37 75.33 202.37 75.33 70.17 75.33 70.17 75.33"/><polygon class="cls-14" points="70.44 75.33 202.32 75.33 202.32 75.33 70.44 75.33 70.44 75.33"/><polygon class="cls-15" points="70.17 75.33 202.37 75.33 202.37 75.33 70.17 75.33 70.17 75.33"/><polygon class="cls-16" points="70.18 75.33 202.31 75.33 202.31 75.33 70.18 75.33 70.18 75.33"/><polygon class="cls-17" points="70 75.33 202 75.33 202 75.33 70 75.33 70 75.33"/><polygon class="cls-18" points="70.17 75.33 202.37 75.33 202.37 75.33 70.17 75.33 70.17 75.33"/><rect class="cls-19" x="70" y="74.33" width="132" height="1"/><polygon class="cls-20" points="70.17 74.33 202.37 74.33 202.37 74.33 70.17 74.33 70.17 74.33"/><polygon class="cls-21" points="70.18 74.33 202.31 74.33 202.31 74.33 70.18 74.33 70.18 74.33"/><polygon class="cls-22" points="70.17 74.33 202.37 74.33 202.37 74.33 70.17 74.33 70.17 74.33"/><polygon class="cls-23" points="70.44 74.33 202.32 74.33 202.32 74.33 70.44 74.33 70.44 74.33"/><rect class="cls-24" x="70" y="73.33" width="132" height="1"/><polygon class="cls-25" points="70.17 73.33 202.37 73.33 202.37 73.33 70.17 73.33 70.17 73.33"/><polygon class="cls-26" points="70.18 73.33 202.31 73.33 202.31 73.33 70.18 73.33 70.18 73.33"/><polygon class="cls-27" points="70.17 73.33 202.37 73.33 202.37 73.33 70.17 73.33 70.17 73.33"/><polygon class="cls-28" points="70.44 73.33 202.32 73.33 202.32 73.33 70.44 73.33 70.44 73.33"/><polygon class="cls-29" points="70.17 73.33 202.37 73.33 202.37 73.33 70.17 73.33 70.17 73.33"/><polygon class="cls-30" points="70.18 73.33 202.31 73.33 202.31 73.33 70.18 73.33 70.18 73.33"/><rect class="cls-31" x="70" y="72.33" width="132" height="1"/><polygon class="cls-32" points="70.17 72.33 202.37 72.33 202.37 72.33 70.17 72.33 70.17 72.33"/><rect class="cls-33" x="70" y="71.33" width="132" height="1"/><polygon class="cls-34" points="70.17 71.33 202.37 71.33 202.37 71.33 70.17 71.33 70.17 71.33"/><polygon class="cls-35" points="70.18 71.33 202.31 71.33 202.31 71.33 70.18 71.33 70.18 71.33"/><polygon class="cls-36" points="70.17 71.33 202.37 71.33 202.37 71.33 70.17 71.33 70.17 71.33"/><polygon class="cls-37" points="70.44 71.33 202.32 71.33 202.32 71.33 70.44 71.33 70.44 71.33"/><rect class="cls-38" x="70" y="70.33" width="132" height="1"/><polygon class="cls-39" points="70.17 70.33 202.37 70.33 202.37 70.33 70.17 70.33 70.17 70.33"/><polygon class="cls-40" points="70.18 70.33 202.31 70.33 202.31 70.33 70.18 70.33 70.18 70.33"/><polygon class="cls-41" points="70.17 70.33 202.37 70.33 202.37 70.33 70.17 70.33 70.17 70.33"/><polygon class="cls-42" points="70.44 70.33 202.32 70.33 202.32 70.33 70.44 70.33 70.44 70.33"/><polygon class="cls-43" points="70.17 70.33 202.37 70.33 202.37 70.33 70.17 70.33 70.17 70.33"/><polygon class="cls-44" points="70 70.33 202 70.33 202 70.33 70 70.33 70 70.33"/><polygon class="cls-45" points="70.17 70.33 202.37 70.33 202.37 70.33 70.17 70.33 70.17 70.33"/><polygon class="cls-46" points="70.18 70.33 202.31 70.33 202.31 70.33 70.18 70.33 70.18 70.33"/><polygon class="cls-47" points="70.44 70.33 202.32 70.33 202.32 70.33 70.44 70.33 70.44 70.33"/><polygon class="cls-48" points="70.17 70.33 202.37 70.33 202.37 70.33 70.17 70.33 70.17 70.33"/><rect class="cls-49" x="70" y="69.33" width="132" height="1"/><polygon class="cls-50" points="70.17 69.33 202.37 69.33 202.37 69.33 70.17 69.33 70.17 69.33"/><polygon class="cls-51" points="70.18 69.33 202.31 69.33 202.31 69.33 70.18 69.33 70.18 69.33"/><polygon class="cls-52" points="70.17 69.33 202.37 69.33 202.37 69.33 70.17 69.33 70.17 69.33"/><rect class="cls-53" x="70" y="68.33" width="132" height="1"/><polygon class="cls-54" points="70.18 68.33 202.31 68.33 202.31 68.33 70.18 68.33 70.18 68.33"/><polygon class="cls-55" points="70.17 68.33 202.37 68.33 202.37 68.33 70.17 68.33 70.17 68.33"/><polygon class="cls-56" points="70.44 68.33 202.32 68.33 202.32 68.33 70.44 68.33 70.44 68.33"/><polygon class="cls-57" points="70.17 68.33 202.37 68.33 202.37 68.33 70.17 68.33 70.17 68.33"/><rect class="cls-58" x="70" y="67.33" width="132" height="1"/><polygon class="cls-59" points="70.17 67.33 202.37 67.33 202.37 67.33 70.17 67.33 70.17 67.33"/><polygon class="cls-60" points="70.18 67.33 202.31 67.33 202.31 67.33 70.18 67.33 70.18 67.33"/><polygon class="cls-61" points="70.44 67.33 202.32 67.33 202.32 67.33 70.44 67.33 70.44 67.33"/><polygon class="cls-62" points="70.17 67.33 202.37 67.33 202.37 67.33 70.17 67.33 70.17 67.33"/><rect class="cls-63" x="70" y="66.33" width="132" height="1"/><polygon class="cls-64" points="70.17 66.33 202.37 66.33 202.37 66.33 70.17 66.33 70.17 66.33"/><polygon class="cls-65" points="70.18 66.33 202.31 66.33 202.31 66.33 70.18 66.33 70.18 66.33"/><polygon class="cls-66" points="70.17 66.33 202.37 66.33 202.37 66.33 70.17 66.33 70.17 66.33"/><polygon class="cls-67" points="70.44 66.33 202.32 66.33 202.32 66.33 70.44 66.33 70.44 66.33"/><rect class="cls-68" x="70" y="65.33" width="132" height="1"/><polygon class="cls-69" points="70.17 65.33 202.37 65.33 202.37 65.33 70.17 65.33 70.17 65.33"/><polygon class="cls-70" points="70.18 65.33 202.31 65.33 202.31 65.33 70.18 65.33 70.18 65.33"/><polygon class="cls-71" points="70.17 65.33 202.37 65.33 202.37 65.33 70.17 65.33 70.17 65.33"/><rect class="cls-72" x="70" y="64.33" width="132" height="1"/><polygon class="cls-73" points="70.17 64.33 202.37 64.33 202.37 64.33 70.17 64.33 70.17 64.33"/><polygon class="cls-74" points="70.44 64.33 202.32 64.33 202.32 64.33 70.44 64.33 70.44 64.33"/><polygon class="cls-75" points="70.18 64.33 202.31 64.33 202.31 64.33 70.18 64.33 70.18 64.33"/><polygon class="cls-76" points="70.17 64.33 202.37 64.33 202.37 64.33 70.17 64.33 70.17 64.33"/><polygon class="cls-77" points="70 64.33 202 64.33 202 64.33 70 64.33 70 64.33"/><polygon class="cls-78" points="70.17 64.33 202.37 64.33 202.37 64.33 70.17 64.33 70.17 64.33"/><polygon class="cls-79" points="70.18 64.33 202.31 64.33 202.31 64.33 70.18 64.33 70.18 64.33"/><polygon class="cls-80" points="70.17 64.33 202.37 64.33 202.37 64.33 70.17 64.33 70.17 64.33"/><polygon class="cls-81" points="70.44 64.33 202.32 64.33 202.32 64.33 70.44 64.33 70.44 64.33"/><rect class="cls-82" x="70" y="63.33" width="132" height="1"/><polygon class="cls-83" points="70.17 63.33 202.37 63.33 202.37 63.33 70.17 63.33 70.17 63.33"/><polygon class="cls-84" points="70.18 63.33 202.31 63.33 202.31 63.33 70.18 63.33 70.18 63.33"/><polygon class="cls-85" points="70.17 63.33 202.37 63.33 202.37 63.33 70.17 63.33 70.17 63.33"/><rect class="cls-86" x="70" y="62.33" width="132" height="1"/><polygon class="cls-87" points="70.17 62.33 202.37 62.33 202.37 62.33 70.17 62.33 70.17 62.33"/><polygon class="cls-88" points="70.44 62.33 202.32 62.33 202.32 62.33 70.44 62.33 70.44 62.33"/><polygon class="cls-89" points="70.18 62.33 202.31 62.33 202.31 62.33 70.18 62.33 70.18 62.33"/><polygon class="cls-90" points="70.17 62.33 202.37 62.33 202.37 62.33 70.17 62.33 70.17 62.33"/><rect class="cls-91" x="70" y="61.33" width="132" height="1"/><polygon class="cls-92" points="70.17 61.33 202.37 61.33 202.37 61.33 70.17 61.33 70.17 61.33"/><polygon class="cls-93" points="70.44 61.33 202.32 61.33 202.32 61.33 70.44 61.33 70.44 61.33"/><polygon class="cls-94" points="70.17 61.33 202.37 61.33 202.37 61.33 70.17 61.33 70.17 61.33"/><polygon class="cls-95" points="70.18 61.33 202.31 61.33 202.31 61.33 70.18 61.33 70.18 61.33"/><rect class="cls-96" x="70" y="60.33" width="132" height="1"/><polygon class="cls-97" points="70.17 60.33 202.37 60.33 202.37 60.33 70.17 60.33 70.17 60.33"/><polygon class="cls-98" points="70.44 60.33 202.32 60.33 202.32 60.33 70.44 60.33 70.44 60.33"/><polygon class="cls-99" points="70.17 60.33 202.37 60.33 202.37 60.33 70.17 60.33 70.17 60.33"/><polygon class="cls-100" points="70.18 60.33 202.31 60.33 202.31 60.33 70.18 60.33 70.18 60.33"/><polygon class="cls-101" points="70.17 60.33 202.37 60.33 202.37 60.33 70.17 60.33 70.17 60.33"/><rect class="cls-102" x="70" y="59.33" width="132" height="1"/><polygon class="cls-103" points="70.17 59.33 202.37 59.33 202.37 59.33 70.17 59.33 70.17 59.33"/><polygon class="cls-104" points="70.18 59.33 202.31 59.33 202.31 59.33 70.18 59.33 70.18 59.33"/><polygon class="cls-105" points="70 59.33 202 59.33 202 59.33 70 59.33 70 59.33"/><polygon class="cls-106" points="70.17 59.33 202.37 59.33 202.37 59.33 70.17 59.33 70.17 59.33"/><polygon class="cls-107" points="70.44 59.33 202.32 59.33 202.32 59.33 70.44 59.33 70.44 59.33"/><polygon class="cls-108" points="70.17 59.33 202.37 59.33 202.37 59.33 70.17 59.33 70.17 59.33"/><polygon class="cls-109" points="70.18 59.33 202.31 59.33 202.31 59.33 70.18 59.33 70.18 59.33"/><polygon class="cls-110" points="70.17 59.33 202.37 59.33 202.37 59.33 70.17 59.33 70.17 59.33"/><rect class="cls-111" x="70" y="58.33" width="132" height="1"/><polygon class="cls-112" points="70.44 58.33 202.32 58.33 202.32 58.33 70.44 58.33 70.44 58.33"/><polygon class="cls-113" points="70.17 58.33 202.37 58.33 202.37 58.33 70.17 58.33 70.17 58.33"/><polygon class="cls-114" points="70.18 58.33 202.31 58.33 202.31 58.33 70.18 58.33 70.18 58.33"/><polygon class="cls-115" points="70.17 58.33 202.37 58.33 202.37 58.33 70.17 58.33 70.17 58.33"/><rect class="cls-116" x="70" y="57.33" width="132" height="1"/><polygon class="cls-117" points="70.17 57.33 202.37 57.33 202.37 57.33 70.17 57.33 70.17 57.33"/><polygon class="cls-118" points="70.44 57.33 202.32 57.33 202.32 57.33 70.44 57.33 70.44 57.33"/><polygon class="cls-119" points="70.18 57.33 202.31 57.33 202.31 57.33 70.18 57.33 70.18 57.33"/><polygon class="cls-120" points="70.17 57.33 202.37 57.33 202.37 57.33 70.17 57.33 70.17 57.33"/><rect class="cls-121" x="70" y="56.33" width="132" height="1"/><polygon class="cls-122" points="70.17 56.33 202.37 56.33 202.37 56.33 70.17 56.33 70.17 56.33"/><polygon class="cls-123" points="70.18 56.33 202.31 56.33 202.31 56.33 70.18 56.33 70.18 56.33"/><polygon class="cls-124" points="70.17 56.33 202.37 56.33 202.37 56.33 70.17 56.33 70.17 56.33"/><rect class="cls-125" x="70" y="55.33" width="132" height="1"/></g></g><path class="cls-126" d="M179.78,61.39a15,15,0,0,0-15,15h29.93A15,15,0,0,0,179.78,61.39Z"/><path class="cls-126" d="M103.69,61.39a15,15,0,0,0-15,15h29.93A15,15,0,0,0,103.69,61.39Z"/><path d="M192.25,87.58H77.51a1.25,1.25,0,1,1,0-2.49H192.25A1.25,1.25,0,1,1,192.25,87.58Z"/><polyline class="cls-127" points="134.88 30.21 141.11 26.47 151.09 26.47 151.09 30.21 144.85 30.21"/><path d="M151.09,31.46h-6.24V29h5V27.72h-8.39l-5.94,3.56-1.28-2.14,6.24-3.74a1.25,1.25,0,0,1,.64-0.18h10a1.25,1.25,0,0,1,1.25,1.25v3.74A1.25,1.25,0,0,1,151.09,31.46Z"/><path d="M198.48,77.61H70A1.25,1.25,0,0,1,68.83,76l5-16.18c0.85-3.35,4.27-9.64,11.18-9.64v2.49c-6.74,0-8.75,7.71-8.77,7.79l0,0.06-4.49,14.6H197.24v-10a1.25,1.25,0,0,1,1.25-1.25H201V56.4h-1.25V53.91h2.49a1.25,1.25,0,0,1,1.25,1.25v10a1.25,1.25,0,0,1-1.25,1.25h-2.49v10A1.25,1.25,0,0,1,198.48,77.61Z"/><g class="cls-128"><rect class="cls-4" x="135" y="49.33" width="22" height="2"/><polygon class="cls-4" points="135.02 49.33 156.54 49.33 156.54 49.33 135.02 49.33 135.02 49.33"/><polygon class="cls-129" points="135.12 49.33 156.96 49.33 156.96 49.33 135.12 49.33 135.12 49.33"/><polygon class="cls-130" points="135.02 49.33 156.54 49.33 156.54 49.33 135.02 49.33 135.02 49.33"/><polygon class="cls-131" points="135 49.33 157 49.33 157 49.33 135 49.33 135 49.33"/><polygon class="cls-132" points="135.02 49.33 156.54 49.33 156.54 49.33 135.02 49.33 135.02 49.33"/><polygon class="cls-133" points="134.79 49.33 156.65 49.33 156.65 49.33 134.79 49.33 134.79 49.33"/><polygon class="cls-134" points="135.02 49.33 156.54 49.33 156.54 49.33 135.02 49.33 135.02 49.33"/><polygon class="cls-135" points="135.12 49.33 156.96 49.33 156.96 49.33 135.12 49.33 135.12 49.33"/><polygon class="cls-136" points="135.02 49.33 156.54 49.33 156.54 49.33 135.02 49.33 135.02 49.33"/><rect class="cls-137" x="135" y="48.33" width="22" height="1"/><polygon class="cls-138" points="135.02 48.33 156.54 48.33 156.54 48.33 135.02 48.33 135.02 48.33"/><polygon class="cls-139" points="134.79 48.33 156.65 48.33 156.65 48.33 134.79 48.33 134.79 48.33"/><polygon class="cls-140" points="135.02 48.33 156.54 48.33 156.54 48.33 135.02 48.33 135.02 48.33"/><polygon class="cls-141" points="135.12 48.33 156.96 48.33 156.96 48.33 135.12 48.33 135.12 48.33"/><polygon class="cls-142" points="135.02 48.33 156.54 48.33 156.54 48.33 135.02 48.33 135.02 48.33"/><polygon class="cls-143" points="134.79 48.33 156.65 48.33 156.65 48.33 134.79 48.33 134.79 48.33"/><polygon class="cls-144" points="135.02 48.33 156.54 48.33 156.54 48.33 135.02 48.33 135.02 48.33"/><rect class="cls-145" x="135" y="47.33" width="22" height="1"/><polygon class="cls-146" points="135.02 47.33 156.54 47.33 156.54 47.33 135.02 47.33 135.02 47.33"/><rect class="cls-147" x="135" y="46.33" width="22" height="1"/><polygon class="cls-148" points="135.02 46.33 156.54 46.33 156.54 46.33 135.02 46.33 135.02 46.33"/><polygon class="cls-149" points="134.79 46.33 156.65 46.33 156.65 46.33 134.79 46.33 134.79 46.33"/><polygon class="cls-150" points="135.02 46.33 156.54 46.33 156.54 46.33 135.02 46.33 135.02 46.33"/><polygon class="cls-151" points="135.12 46.33 156.96 46.33 156.96 46.33 135.12 46.33 135.12 46.33"/><polygon class="cls-152" points="135.02 46.33 156.54 46.33 156.54 46.33 135.02 46.33 135.02 46.33"/><rect class="cls-153" x="135" y="45.33" width="22" height="1"/><polygon class="cls-154" points="135.02 45.33 156.54 45.33 156.54 45.33 135.02 45.33 135.02 45.33"/><polygon class="cls-155" points="134.79 45.33 156.65 45.33 156.65 45.33 134.79 45.33 134.79 45.33"/><polygon class="cls-156" points="135.12 45.33 156.96 45.33 156.96 45.33 135.12 45.33 135.12 45.33"/><polygon class="cls-157" points="135.02 45.33 156.54 45.33 156.54 45.33 135.02 45.33 135.02 45.33"/><rect class="cls-158" x="135" y="44.33" width="22" height="1"/><polygon class="cls-159" points="135.02 44.33 156.54 44.33 156.54 44.33 135.02 44.33 135.02 44.33"/><polygon class="cls-160" points="134.79 44.33 156.65 44.33 156.65 44.33 134.79 44.33 134.79 44.33"/><polygon class="cls-161" points="135.02 44.33 156.54 44.33 156.54 44.33 135.02 44.33 135.02 44.33"/><polygon class="cls-162" points="135.12 44.33 156.96 44.33 156.96 44.33 135.12 44.33 135.12 44.33"/><polygon class="cls-163" points="135.02 44.33 156.54 44.33 156.54 44.33 135.02 44.33 135.02 44.33"/><rect class="cls-164" x="135" y="43.33" width="22" height="1"/><polygon class="cls-165" points="135.02 43.33 156.54 43.33 156.54 43.33 135.02 43.33 135.02 43.33"/><polygon class="cls-166" points="134.79 43.33 156.65 43.33 156.65 43.33 134.79 43.33 134.79 43.33"/><polygon class="cls-167" points="135.02 43.33 156.54 43.33 156.54 43.33 135.02 43.33 135.02 43.33"/><polygon class="cls-168" points="135 43.33 157 43.33 157 43.33 135 43.33 135 43.33"/><polygon class="cls-169" points="135.02 43.33 156.54 43.33 156.54 43.33 135.02 43.33 135.02 43.33"/><polygon class="cls-170" points="134.79 43.33 156.65 43.33 156.65 43.33 134.79 43.33 134.79 43.33"/><rect class="cls-170" x="135" y="35.33" width="22" height="8"/></g><g class="cls-171"><polygon class="cls-4" points="112.42 51.33 114.64 51.33 112.42 51.33 112.42 51.33"/><polygon class="cls-4" points="112.44 51.33 130.08 51.33 130.08 51.33 114.64 51.33 112.44 51.33 112.44 51.33"/><rect class="cls-129" x="112" y="50.33" width="18" height="1"/><rect class="cls-130" x="112" y="49.33" width="18" height="1"/><polygon class="cls-131" points="112.44 49.33 129.93 49.33 129.93 49.33 112.44 49.33 112.44 49.33"/><polygon class="cls-132" points="112.44 49.33 130.08 49.33 130.08 49.33 112.44 49.33 112.44 49.33"/><polygon class="cls-133" points="112 49.33 130 49.33 130 49.33 112 49.33 112 49.33"/><polygon class="cls-134" points="112.44 49.33 130.08 49.33 130.08 49.33 112.44 49.33 112.44 49.33"/><rect class="cls-135" x="112" y="48.33" width="18" height="1"/><polygon class="cls-136" points="112.44 48.33 129.93 48.33 129.93 48.33 112.44 48.33 112.44 48.33"/><polygon class="cls-137" points="112.44 48.33 130.08 48.33 130.08 48.33 112.44 48.33 112.44 48.33"/><rect class="cls-138" x="112" y="47.33" width="18" height="1"/><rect class="cls-139" x="112" y="46.33" width="18" height="1"/><polygon class="cls-140" points="112.44 46.33 129.93 46.33 129.93 46.33 112.44 46.33 112.44 46.33"/><polygon class="cls-141" points="112.44 46.33 130.08 46.33 130.08 46.33 112.44 46.33 112.44 46.33"/><rect class="cls-142" x="112" y="45.33" width="18" height="1"/><polygon class="cls-143" points="112.44 45.33 130.08 45.33 130.08 45.33 112.44 45.33 112.44 45.33"/><rect class="cls-144" x="112" y="44.33" width="18" height="1"/><polygon class="cls-145" points="112.44 44.33 129.93 44.33 129.93 44.33 112.44 44.33 112.44 44.33"/><polygon class="cls-146" points="112.44 44.33 130.08 44.33 130.08 44.33 112.44 44.33 112.44 44.33"/><rect class="cls-147" x="112" y="43.33" width="18" height="1"/><polygon class="cls-148" points="112 43.33 130 43.33 130 43.33 112 43.33 112 43.33"/><polygon class="cls-149" points="112.44 43.33 129.93 43.33 129.93 43.33 112.44 43.33 112.44 43.33"/><polygon class="cls-150" points="112.44 43.33 130.08 43.33 130.08 43.33 112.44 43.33 112.44 43.33"/><rect class="cls-151" x="112" y="42.33" width="18" height="1"/><polygon class="cls-152" points="112.44 42.33 130.08 42.33 130.08 42.33 112.44 42.33 112.44 42.33"/><rect class="cls-153" x="112" y="41.33" width="18" height="1"/><polygon class="cls-154" points="112.44 41.33 129.93 41.33 129.93 41.33 112.44 41.33 112.44 41.33"/><rect class="cls-155" x="112" y="40.33" width="18" height="1"/><polygon class="cls-156" points="112.44 40.33 130.08 40.33 130.08 40.33 112.44 40.33 112.44 40.33"/><rect class="cls-157" x="112" y="39.33" width="18" height="1"/><polygon class="cls-158" points="112.44 39.33 130.08 39.33 130.08 39.33 112.44 39.33 112.44 39.33"/><polygon class="cls-159" points="112.44 39.33 129.93 39.33 129.93 39.33 112.44 39.33 112.44 39.33"/><rect class="cls-160" x="112" y="38.33" width="18" height="1"/><polygon class="cls-161" points="112.44 38.33 130.08 38.33 130.08 38.33 112.44 38.33 112.44 38.33"/><polygon class="cls-162" points="112 38.33 130 38.33 130 38.33 112 38.33 112 38.33"/><polygon class="cls-163" points="112.44 38.33 129.93 38.33 129.93 38.33 112.44 38.33 112.44 38.33"/><rect class="cls-164" x="112" y="37.33" width="18" height="1"/><polygon class="cls-165" points="112.44 37.33 130.08 37.33 130.08 37.33 112.44 37.33 112.44 37.33"/><rect class="cls-166" x="112" y="36.33" width="18" height="1"/><polygon class="cls-167" points="112.44 36.33 130.08 36.33 130.08 36.33 112.44 36.33 112.44 36.33"/><polygon class="cls-168" points="112.44 36.33 129.93 36.33 129.93 36.33 112.44 36.33 112.44 36.33"/><rect class="cls-169" x="112" y="35.33" width="18" height="1"/><polygon class="cls-170" points="123.36 35.33 130.08 35.33 130.08 35.33 112.44 35.33 112.44 35.33 123.36 35.33"/><polygon class="cls-170" points="130.1 35.33 123.36 35.33 130.1 35.33 130.1 35.33"/></g><path d="M127.89,52.66H114.63a3.61,3.61,0,0,1-3.46-3.74V37.73A3.61,3.61,0,0,1,114.5,34c4.21-.17,8.77-0.21,13.44-0.15a3.62,3.62,0,0,1,3.41,3.74V48.92A3.61,3.61,0,0,1,127.89,52.66Zm-4.54-16.35c-3,0-6,.06-8.75.17a1.15,1.15,0,0,0-.93,1.25V48.92a1.15,1.15,0,0,0,1,1.25h13.26a1.15,1.15,0,0,0,1-1.25V37.59a1.15,1.15,0,0,0-.95-1.25Z"/><g class="cls-172"><polygon class="cls-4" points="88.68 51.33 91.44 51.33 88.68 51.33 88.68 51.33"/><polygon class="cls-4" points="88.92 51.33 107.4 51.33 107.4 51.33 91.44 51.33 88.92 51.33 88.92 51.33"/><polygon class="cls-129" points="88.64 51.33 107.59 51.33 107.59 51.33 88.64 51.33 88.64 51.33"/><rect class="cls-130" x="89" y="49.33" width="18" height="2"/><polygon class="cls-131" points="88.64 49.33 107.59 49.33 107.59 49.33 88.64 49.33 88.64 49.33"/><polygon class="cls-132" points="88.92 49.33 107.4 49.33 107.4 49.33 88.92 49.33 88.92 49.33"/><polygon class="cls-133" points="89 49.33 107 49.33 107 49.33 89 49.33 89 49.33"/><polygon class="cls-134" points="88.64 49.33 107.59 49.33 107.59 49.33 88.64 49.33 88.64 49.33"/><polygon class="cls-135" points="88.92 49.33 107.4 49.33 107.4 49.33 88.92 49.33 88.92 49.33"/><rect class="cls-136" x="89" y="48.33" width="18" height="1"/><polygon class="cls-137" points="88.92 48.33 107.4 48.33 107.4 48.33 88.92 48.33 88.92 48.33"/><polygon class="cls-138" points="88.64 48.33 107.59 48.33 107.59 48.33 88.64 48.33 88.64 48.33"/><rect class="cls-139" x="89" y="47.33" width="18" height="1"/><rect class="cls-140" x="89" y="46.33" width="18" height="1"/><polygon class="cls-141" points="88.64 46.33 107.59 46.33 107.59 46.33 88.64 46.33 88.64 46.33"/><rect class="cls-142" x="89" y="45.33" width="18" height="1"/><polygon class="cls-143" points="88.64 45.33 107.59 45.33 107.59 45.33 88.64 45.33 88.64 45.33"/><polygon class="cls-144" points="88.92 45.33 107.4 45.33 107.4 45.33 88.92 45.33 88.92 45.33"/><rect class="cls-145" x="89" y="44.33" width="18" height="1"/><polygon class="cls-146" points="88.64 44.33 107.59 44.33 107.59 44.33 88.64 44.33 88.64 44.33"/><polygon class="cls-147" points="88.92 44.33 107.4 44.33 107.4 44.33 88.92 44.33 88.92 44.33"/><rect class="cls-148" x="89" y="43.33" width="18" height="1"/><polygon class="cls-149" points="89 43.33 107 43.33 107 43.33 89 43.33 89 43.33"/><polygon class="cls-150" points="88.64 43.33 107.59 43.33 107.59 43.33 88.64 43.33 88.64 43.33"/><polygon class="cls-151" points="88.92 43.33 107.4 43.33 107.4 43.33 88.92 43.33 88.92 43.33"/><rect class="cls-152" x="89" y="42.33" width="18" height="1"/><polygon class="cls-153" points="88.64 42.33 107.59 42.33 107.59 42.33 88.64 42.33 88.64 42.33"/><polygon class="cls-154" points="88.92 42.33 107.4 42.33 107.4 42.33 88.92 42.33 88.92 42.33"/><rect class="cls-155" x="89" y="41.33" width="18" height="1"/><rect class="cls-156" x="89" y="40.33" width="18" height="1"/><polygon class="cls-157" points="88.92 40.33 107.4 40.33 107.4 40.33 88.92 40.33 88.92 40.33"/><polygon class="cls-158" points="88.64 40.33 107.59 40.33 107.59 40.33 88.64 40.33 88.64 40.33"/><rect class="cls-159" x="89" y="39.33" width="18" height="1"/><polygon class="cls-160" points="88.92 39.33 107.4 39.33 107.4 39.33 88.92 39.33 88.92 39.33"/><rect class="cls-161" x="89" y="38.33" width="18" height="1"/><polygon class="cls-162" points="88.64 38.33 107.59 38.33 107.59 38.33 88.64 38.33 88.64 38.33"/><polygon class="cls-163" points="88.92 38.33 107.4 38.33 107.4 38.33 88.92 38.33 88.92 38.33"/><polygon class="cls-164" points="89 38.33 107 38.33 107 38.33 89 38.33 89 38.33"/><polygon class="cls-165" points="88.64 38.33 107.59 38.33 107.59 38.33 88.64 38.33 88.64 38.33"/><rect class="cls-166" x="89" y="37.33" width="18" height="1"/><polygon class="cls-167" points="88.92 37.33 107.4 37.33 107.4 37.33 88.92 37.33 88.92 37.33"/><rect class="cls-168" x="89" y="36.33" width="18" height="1"/><polygon class="cls-169" points="88.92 36.33 107.4 36.33 107.4 36.33 88.92 36.33 88.92 36.33"/><polygon class="cls-170" points="88.64 36.33 107.59 36.33 107.59 36.33 88.64 36.33 88.64 36.33"/><polygon class="cls-170" points="107.58 36.33 88.56 36.33 88.56 36.33 107.58 36.33 107.58 36.33"/></g><path d="M105.23,52.66H91.44A3.38,3.38,0,0,1,88.56,51a4,4,0,0,1-.16-3.88l1.16-2.31a17.81,17.81,0,0,1,13.67-10l1.66-.18a3.27,3.27,0,0,1,2.54.86,3.86,3.86,0,0,1,1.24,2.87V48.92A3.61,3.61,0,0,1,105.23,52.66Zm0-15.58h-0.07l-1.63.17A15.33,15.33,0,0,0,91.8,45.94l-1.16,2.31a1.49,1.49,0,0,0,.06,1.45,0.91,0.91,0,0,0,.75.47h13.79a1.15,1.15,0,0,0,1-1.25V38.33a1.37,1.37,0,0,0-.42-1A0.82,0.82,0,0,0,105.22,37.08Z"/><path class="cls-173" d="M145,52.61a1.25,1.25,0,0,1-.88-2.13l4.1-4.1A1.25,1.25,0,0,1,150,48.15l-4.1,4.1A1.24,1.24,0,0,1,145,52.61Z"/><path d="M68.77,72.62v3.74h20a14.94,14.94,0,0,1,.49-3.74H68.77Z"/><path d="M88.73,77.61h-20a1.25,1.25,0,0,1-1.25-1.25V72.62a1.25,1.25,0,0,1,1.25-1.25H89.22a1.25,1.25,0,0,1,1.21,1.56A13.76,13.76,0,0,0,90,76.36,1.25,1.25,0,0,1,88.73,77.61ZM70,75.11H87.53q0.05-.62.15-1.25H70v1.25Z"/><path d="M201.2,56.55H198.7A5.78,5.78,0,0,0,194,50.66c-10.52-1.47-14.52-1.89-33-3a1.25,1.25,0,0,1-.89-0.46L148.88,33.5a5.33,5.33,0,0,0-4-2H104.94A20.58,20.58,0,0,0,86.58,43.27c-1.8,4.43-3.77,9.18-3.79,9.23l-2.3-1s2-4.79,3.78-9.21A22.88,22.88,0,0,1,104.94,29h39.91a7.82,7.82,0,0,1,6,3l10.88,13.29c18.12,1.08,22.18,1.51,32.67,3A8.28,8.28,0,0,1,201.2,56.55Z"/><path d="M196,76.36h-2.49a13.72,13.72,0,1,0-27.44,0h-2.49A16.21,16.21,0,1,1,196,76.36Z"/><path d="M119.91,76.36h-2.49a13.72,13.72,0,1,0-27.44,0H87.48A16.21,16.21,0,0,1,119.91,76.36Z"/><circle class="cls-127" cx="103.69" cy="76.36" r="9.98"/><path d="M103.69,87.58a11.23,11.23,0,1,1,11.23-11.23A11.24,11.24,0,0,1,103.69,87.58Zm0-20a8.73,8.73,0,1,0,8.73,8.73A8.74,8.74,0,0,0,103.69,67.63Z"/><path d="M106,68.71A10,10,0,0,0,97.9,84.48a10,10,0,0,0,13.91-13.91A9.93,9.93,0,0,0,106,68.71Z"/><circle class="cls-6" cx="103.69" cy="76.36" r="4.37"/><circle cx="103.69" cy="76.36" r="1.56"/><circle class="cls-127" cx="179.78" cy="76.36" r="9.98"/><path d="M179.77,87.58A11.23,11.23,0,1,1,191,76.36,11.24,11.24,0,0,1,179.77,87.58Zm0-20a8.73,8.73,0,1,0,8.73,8.73A8.74,8.74,0,0,0,179.77,67.63Z"/><path d="M118.17,72.62a14.94,14.94,0,0,1,.49,3.74h46.15a14.94,14.94,0,0,1,.49-3.74H118.17Z"/><path d="M164.81,77.61H118.66a1.25,1.25,0,0,1-1.25-1.25,13.77,13.77,0,0,0-.45-3.43,1.25,1.25,0,0,1,1.21-1.56H165.3a1.25,1.25,0,0,1,1.21,1.56,13.78,13.78,0,0,0-.45,3.43A1.25,1.25,0,0,1,164.81,77.61Zm-45-2.49h43.76q0.05-.62.15-1.25H119.7Q119.81,74.49,119.86,75.11Z"/><path d="M194.25,72.62a14.94,14.94,0,0,1,.49,3.74H201V72.62h-6.73Z"/><path d="M201,77.61h-6.24a1.25,1.25,0,0,1-1.25-1.25,13.76,13.76,0,0,0-.45-3.43,1.25,1.25,0,0,1,1.21-1.56H201a1.25,1.25,0,0,1,1.25,1.25v3.74A1.25,1.25,0,0,1,201,77.61Zm-5-2.49h3.79V73.86h-3.95Q195.89,74.49,195.94,75.11Z"/><path d="M201,87.58h-3.74a1.25,1.25,0,1,1,0-2.49H201A1.25,1.25,0,1,1,201,87.58Z"/><path d="M72.51,87.58H68.77a1.25,1.25,0,1,1,0-2.49h3.74A1.25,1.25,0,0,1,72.51,87.58Z"/><path d="M182.1,68.71A10,10,0,0,0,174,84.48,10,10,0,0,0,187.9,70.57,9.93,9.93,0,0,0,182.1,68.71Z"/><circle class="cls-6" cx="179.78" cy="76.36" r="4.37"/><circle cx="179.78" cy="76.36" r="1.56"/><path class="cls-173" d="M139.36,48.42h1a13.22,13.22,0,0,0,1-5h1.94a0.31,0.31,0,0,0,.14-0.58l-1.83-.91L141.86,40a0.31,0.31,0,0,0-.31-0.31h-6.68v9.23a2.36,2.36,0,0,0,2.21,2.49h2.28v-3Z"/><path d="M153.73,52.66H137.08a3.61,3.61,0,0,1-3.46-3.74V37.8A3.88,3.88,0,0,1,134.76,35a3.37,3.37,0,0,1,2.43-1l2.61,0c1.85,0,3.3,0,4.74.17a5.46,5.46,0,0,1,3.12,1.7c0.72,0.77,8,9.66,8.81,10.67l0.07,0.1a4,4,0,0,1,.18,4.07A3.38,3.38,0,0,1,153.73,52.66ZM137.12,36.55a0.88,0.88,0,0,0-.62.27,1.37,1.37,0,0,0-.38,1V48.92a1.15,1.15,0,0,0,1,1.25h16.65a0.92,0.92,0,0,0,.79-0.54,1.5,1.5,0,0,0,0-1.47c-3.22-3.95-8.15-10-8.65-10.49a3.08,3.08,0,0,0-1.55-.92c-1.33-.13-2.73-0.14-4.52-0.16l-2.63,0h0Z"/><rect x="143.18" y="50.17" width="16.65" height="2.49"/></g></g></svg>