<svg id="Layer_1" data-name="Layer 1" xmlns="http://www.w3.org/2000/svg" viewBox="0 0 429.98 37.24"><title>libretaxi-r5-text-only-black-on-white</title><path d="M88,92.6h13.34a2,2,0,0,1,2.26,2.26v5a2,2,0,0,1-2.26,2.26H80.74a2,2,0,0,1-2.26-2.26V67.14a2,2,0,0,1,2.26-2.26h5A2,2,0,0,1,88,67.14V92.6Z" transform="translate(-78.48 -64.87)"/><path d="M137.36,64.87a2,2,0,0,1,2.26,2.26V99.85a2,2,0,0,1-2.26,2.26h-5a2,2,0,0,1-2.26-2.26V67.14a2,2,0,0,1,2.26-2.26h5Z" transform="translate(-78.48 -64.87)"/><path d="M169,102.11a2,2,0,0,1-2.26-2.26V67.14A2,2,0,0,1,169,64.87h14a12,12,0,0,1,8.05,2.82,11.25,11.25,0,0,1,2.47,2.92,10.93,10.93,0,0,1,1.21,5.28v0.05a8.61,8.61,0,0,1-1.16,4.18,4.83,4.83,0,0,1-2.31,2.31,7,7,0,0,1,3.17,2.16,9.72,9.72,0,0,1,2.42,5.74,12.16,12.16,0,0,1-.81,4.93,11.19,11.19,0,0,1-3.57,4.73,11,11,0,0,1-6.79,2.11H169Zm6.79-28.79v6.24h6.69a3.83,3.83,0,0,0,2.26-.75,2.81,2.81,0,0,0,1.11-2.21c0-1.66-.86-3.27-2.87-3.27h-7.2Zm0,13.94v6.24h8.25a3,3,0,0,0,3.27-3.12c0-2.16-1.36-3.12-3.57-3.12h-8Z" transform="translate(-78.48 -64.87)"/><path d="M252,77.1a12.28,12.28,0,0,1-4.23,9.61,4.78,4.78,0,0,1-1.06.71,5.09,5.09,0,0,0-.6.25l6.54,11.83c1,1.61,0,2.62-1.76,2.62H245.4a2.64,2.64,0,0,1-2.62-1.76l-5.94-11.52h-4.58v11a2,2,0,0,1-2.26,2.26h-5a2,2,0,0,1-2.26-2.26V67.14A2,2,0,0,1,225,64.87h15.3a11.9,11.9,0,0,1,8.05,2.82,11.3,11.3,0,0,1,2.47,3.52A14.75,14.75,0,0,1,252,77.1Zm-9.21,0a2.81,2.81,0,0,0-3-3.07h-7.55v6.24h7.2A3.2,3.2,0,0,0,242.84,77.1Z" transform="translate(-78.48 -64.87)"/><path d="M304.48,99.85a2,2,0,0,1-2.26,2.26H280.63a2,2,0,0,1-2.26-2.26V67.14a2,2,0,0,1,2.26-2.26h21.59a2,2,0,0,1,2.26,2.26v5a2,2,0,0,1-2.26,2.26H287.88v4.68h10.57a2,2,0,0,1,2.26,2.26v4.28a2,2,0,0,1-2.26,2.26H287.88V92.6h14.34a2,2,0,0,1,2.26,2.26v5Z" transform="translate(-78.48 -64.87)"/><path d="M342.13,102.11a2,2,0,0,1-2.26-2.26V74.38h-7.75a2,2,0,0,1-2.26-2.26v-5a2,2,0,0,1,2.26-2.26h25a2,2,0,0,1,2.26,2.26v5a2,2,0,0,1-2.26,2.26h-7.75V99.85a2,2,0,0,1-2.26,2.26h-5Z" transform="translate(-78.48 -64.87)"/><path d="M399,64.87a2.6,2.6,0,0,1,2.62,1.81l11.47,32.81c0.55,1.61-.1,2.62-1.86,2.62h-5.38a2.45,2.45,0,0,1-2.57-1.86l-1.56-4.58H390.64l-1.56,4.58a2.54,2.54,0,0,1-2.62,1.86H381c-1.76,0-2.42-1-1.86-2.62l11.52-32.81a2.54,2.54,0,0,1,2.57-1.81H399Zm0.6,22.54L396.13,77.1,393,87.42h6.64Z" transform="translate(-78.48 -64.87)"/><path d="M455.56,74.89l5.79-8.56a3.22,3.22,0,0,1,2.77-1.46h6.44c1.86,0,2.52,1.21,1.46,2.77L461.3,83.34l10.87,16c1.06,1.56.4,2.77-1.46,2.77h-6.44a3.22,3.22,0,0,1-2.77-1.46l-5.94-8.81-6,8.81a3.22,3.22,0,0,1-2.77,1.46h-6.44c-1.86,0-2.52-1.21-1.46-2.77l10.87-16-10.72-15.7c-1.06-1.56-.4-2.77,1.46-2.77H447a3.22,3.22,0,0,1,2.77,1.46Z" transform="translate(-78.48 -64.87)"/><path d="M506.19,64.87a2,2,0,0,1,2.26,2.26V99.85a2,2,0,0,1-2.26,2.26h-5a2,2,0,0,1-2.26-2.26V67.14a2,2,0,0,1,2.26-2.26h5Z" transform="translate(-78.48 -64.87)"/></svg>