<svg xmlns="http://www.w3.org/2000/svg" xmlns:xlink="http://www.w3.org/1999/xlink" viewBox="0 0 450.31 62.36"><defs><style>.cls-1{fill:none;}.cls-2{isolation:isolate;}.cls-3{fill:#eee;}.cls-4{fill:#ccc;}.cls-5{fill:#ffde00;}.cls-6{opacity:0.5;mix-blend-mode:multiply;}.cls-7{clip-path:url(#clip-path);}.cls-8{fill:#f8f6e9;}.cls-9{fill:#f8f5e8;}.cls-10{fill:#f7f5e7;}.cls-11{fill:#f7f4e6;}.cls-12{fill:#f7f4e5;}.cls-13{fill:#f6f4e4;}.cls-14{fill:#f6f3e3;}.cls-15{fill:#f6f3e2;}.cls-16{fill:#f5f2e1;}.cls-17{fill:#f5f2e0;}.cls-18{fill:#f5f1df;}.cls-19{fill:#f4f1de;}.cls-20{fill:#f4f1dd;}.cls-21{fill:#f4f0dc;}.cls-22{fill:#f3f0db;}.cls-23{fill:#f3efda;}.cls-24{fill:#f3efd9;}.cls-25{fill:#f2efd8;}.cls-26{fill:#f2eed7;}.cls-27{fill:#f2eed6;}.cls-28{fill:#f1edd5;}.cls-29{fill:#f1edd4;}.cls-30{fill:#f1ecd3;}.cls-31{fill:#f1ecd2;}.cls-32{fill:#f0ecd1;}.cls-33{fill:#f0ebd0;}.cls-34{fill:#f0ebcf;}.cls-35{fill:#efeace;}.cls-36{fill:#efeacd;}.cls-37{fill:#efe9cc;}.cls-38{fill:#eee9cb;}.cls-39{fill:#eee9ca;}.cls-40{fill:#eee8c9;}.cls-41{fill:#ede8c8;}.cls-42{fill:#ede7c7;}.cls-43{fill:#ede7c6;}.cls-44{fill:#ece6c5;}.cls-45{fill:#ece6c4;}.cls-46{fill:#ece6c3;}.cls-47{fill:#ebe5c2;}.cls-48{fill:#ebe5c1;}.cls-49{fill:#ebe4c0;}.cls-50{fill:#eae4bf;}.cls-51{fill:#eae4be;}.cls-52{fill:#eae3bd;}.cls-53{fill:#e9e3bc;}.cls-54{fill:#e9e2bb;}.cls-55{fill:#e9e2ba;}.cls-56{fill:#e8e1b9;}.cls-57{fill:#e8e1b8;}.cls-58{fill:#e8e1b7;}.cls-59{fill:#e7e0b6;}.cls-60{fill:#e7e0b5;}.cls-61{fill:#e7dfb4;}.cls-62{fill:#e7dfb3;}.cls-63{fill:#e6deb2;}.cls-64{fill:#e6deb1;}.cls-65{fill:#e6deb0;}.cls-66{fill:#e5ddaf;}.cls-67{fill:#e5ddae;}.cls-68{fill:#e5dcad;}.cls-69{fill:#e4dcac;}.cls-70{fill:#e4dbab;}.cls-71{fill:#e4dbaa;}.cls-72{fill:#e3dba9;}.cls-73{fill:#e3daa8;}.cls-74{fill:#e3daa7;}.cls-75{fill:#e2d9a6;}.cls-76{fill:#e2d9a5;}.cls-77{fill:#e2d9a4;}.cls-78{fill:#e1d8a3;}.cls-79{fill:#e1d8a2;}.cls-80{fill:#e1d7a1;}.cls-81{fill:#e0d7a0;}.cls-82{fill:#e0d69f;}.cls-83{fill:#e0d69e;}.cls-84{fill:#dfd69d;}.cls-85{fill:#dfd59c;}.cls-86{fill:#dfd59b;}.cls-87{fill:#ded49a;}.cls-88{fill:#ded499;}.cls-89{fill:#ded398;}.cls-90{fill:#ded397;}.cls-91{fill:#ddd395;}.cls-92{fill:#ddd294;}.cls-93{fill:#ddd293;}.cls-94{fill:#dcd192;}.cls-95{fill:#dcd191;}.cls-96{fill:#dcd090;}.cls-97{fill:#dbd08f;}.cls-98{fill:#dbd08e;}.cls-99{fill:#dbcf8d;}.cls-100{fill:#dacf8c;}.cls-101{fill:#dace8b;}.cls-102{fill:#dace8a;}.cls-103{fill:#d9ce89;}.cls-104{fill:#d9cd88;}.cls-105{fill:#d9cd87;}.cls-106{fill:#d8cc86;}.cls-107{fill:#d8cc85;}.cls-108{fill:#d8cb84;}.cls-109{fill:#d7cb83;}.cls-110{fill:#d7cb82;}.cls-111{fill:#d7ca81;}.cls-112{fill:#d6ca80;}.cls-113{fill:#d6c97f;}.cls-114{fill:#d6c97e;}.cls-115{fill:#d5c87d;}.cls-116{fill:#d5c87c;}.cls-117{fill:#d5c87b;}.cls-118{fill:#d4c77a;}.cls-119{fill:#d4c779;}.cls-120{fill:#d4c678;}.cls-121{fill:#d4c677;}.cls-122{fill:#d3c576;}.cls-123{fill:#d3c575;}.cls-124{fill:#222;}.cls-125{fill:#333;}.cls-126{clip-path:url(#clip-path-2);}.cls-127{fill:#fff;}.cls-128{fill:#feffff;}.cls-129{fill:#fdfeff;}.cls-130{fill:#fcfeff;}.cls-131{fill:#fbfefe;}.cls-132{fill:#fafdfe;}.cls-133{fill:#f9fdfe;}.cls-134{fill:#f8fdfe;}.cls-135{fill:#f7fdfe;}.cls-136{fill:#f6fcfe;}.cls-137{fill:#f5fcfe;}.cls-138{fill:#f4fcfd;}.cls-139{fill:#f3fbfd;}.cls-140{fill:#f2fbfd;}.cls-141{fill:#f1fbfd;}.cls-142{fill:#f0fafd;}.cls-143{fill:#effafd;}.cls-144{fill:#eefafd;}.cls-145{fill:#edf9fc;}.cls-146{fill:#ecf9fc;}.cls-147{fill:#ebf9fc;}.cls-148{fill:#eaf9fc;}.cls-149{fill:#e8f8fc;}.cls-150{fill:#e7f8fc;}.cls-151{fill:#e6f8fc;}.cls-152{fill:#e5f7fb;}.cls-153{fill:#e4f7fb;}.cls-154{fill:#e3f7fb;}.cls-155{fill:#e2f6fb;}.cls-156{fill:#e1f6fb;}.cls-157{fill:#e0f6fb;}.cls-158{fill:#dff5fb;}.cls-159{fill:#def5fa;}.cls-160{fill:#ddf5fa;}.cls-161{fill:#dcf4fa;}.cls-162{fill:#dbf4fa;}.cls-163{fill:#daf4fa;}.cls-164{fill:#d9f4fa;}.cls-165{fill:#d8f3fa;}.cls-166{fill:#d7f3f9;}.cls-167{fill:#d6f3f9;}.cls-168{fill:#d5f2f9;}.cls-169{fill:#d4f2f9;}.cls-170{clip-path:url(#clip-path-3);}.cls-171{clip-path:url(#clip-path-4);}.cls-172{fill:#a7c1c9;}</style><clipPath id="clip-path" transform="translate(-67.52 -25.22)"><path class="cls-1" d="M123.64,61.92a2.5,2.5,0,0,1-2.83-1.54c-1.78-4.54-6.19-4-8.39-4l-35.77,0A14.8,14.8,0,0,0,75,60.14L70,76.36H198.48V65.13h3.74V56.41C153.67,56.6,130.52,60.49,123.64,61.92Z"/></clipPath><clipPath id="clip-path-2" transform="translate(-67.52 -25.22)"><path class="cls-1" d="M137.08,51.41h16.65c1.82,0,2.86-2.35,1.77-4,0,0-8-9.85-8.75-10.61a4.22,4.22,0,0,0-2.34-1.31c-2-.2-4-0.14-7.25-0.2a2.37,2.37,0,0,0-2.29,2.49V48.92A2.36,2.36,0,0,0,137.08,51.41Z"/></clipPath><clipPath id="clip-path-3" transform="translate(-67.52 -25.22)"><path class="cls-1" d="M130.1,37.59a2.37,2.37,0,0,0-2.18-2.5q-2.2,0-4.57,0c-3.24,0-6.17.07-8.8,0.17a2.37,2.37,0,0,0-2.12,2.49V48.92a2.36,2.36,0,0,0,2.21,2.49h13.26a2.36,2.36,0,0,0,2.21-2.49V37.59Z"/></clipPath><clipPath id="clip-path-4" transform="translate(-67.52 -25.22)"><path class="cls-1" d="M107.44,38.33A2.34,2.34,0,0,0,105,35.85l-1.65.17a16.55,16.55,0,0,0-12.7,9.36l-1.16,2.31c-0.84,1.66.22,3.73,1.92,3.73h13.79a2.36,2.36,0,0,0,2.21-2.49V38.33Z"/></clipPath></defs><title>libretaxi-r5-banner</title><g class="cls-2"><g id="Layer_1" data-name="Layer 1"><path class="cls-3" d="M202.23,56.41H206v7.48h-3.74" transform="translate(-67.52 -25.22)"/><path d="M206,65.13h-3.74V62.64h2.49v-5h-2.49V55.16H206a1.25,1.25,0,0,1,1.25,1.25v7.48A1.25,1.25,0,0,1,206,65.13Z" transform="translate(-67.52 -25.22)"/><path class="cls-4" d="M202.23,61.15v2.74H206V61.14h-3.74Z" transform="translate(-67.52 -25.22)"/><path class="cls-4" d="M202.23,59.65v1H206v-1h-3.74Z" transform="translate(-67.52 -25.22)"/><path d="M206,65.13h-3.74V62.64h2.49v-5h-2.49V55.16H206a1.25,1.25,0,0,1,1.25,1.25v7.48A1.25,1.25,0,0,1,206,65.13Z" transform="translate(-67.52 -25.22)"/><path class="cls-5" d="M199.82,55.16a6.89,6.89,0,0,0-5.63-5.73c-10.36-1.45-14.17-1.88-33.12-3L149.84,32.71a6.58,6.58,0,0,0-5-2.49H104.94A21.7,21.7,0,0,0,85.42,42.81C83.61,47.28,81.64,52,81.64,52h0.05C76.57,54,75,60.14,75,60.14L70,76.36H198.48V65.13h3.74v-10h-2.41Z" transform="translate(-67.52 -25.22)"/><g class="cls-6"><g class="cls-7"><polygon class="cls-8" points="2.66 51.11 134.78 51.11 134.78 51.11 2.66 51.11 2.66 51.11"/><polygon class="cls-9" points="2.64 51.11 134.85 51.11 134.85 51.11 2.64 51.11 2.64 51.11"/><rect class="cls-10" x="2.48" y="50.11" width="132" height="1"/><polygon class="cls-11" points="2.64 50.11 134.85 50.11 134.85 50.11 2.64 50.11 2.64 50.11"/><polygon class="cls-12" points="2.92 50.11 134.8 50.11 134.8 50.11 2.92 50.11 2.92 50.11"/><polygon class="cls-13" points="2.64 50.11 134.85 50.11 134.85 50.11 2.64 50.11 2.64 50.11"/><polygon class="cls-14" points="2.66 50.11 134.78 50.11 134.78 50.11 2.66 50.11 2.66 50.11"/><polygon class="cls-15" points="2.48 50.11 134.48 50.11 134.48 50.11 2.48 50.11 2.48 50.11"/><polygon class="cls-16" points="2.64 50.11 134.85 50.11 134.85 50.11 2.64 50.11 2.64 50.11"/><rect class="cls-17" x="2.48" y="49.11" width="132" height="1"/><polygon class="cls-18" points="2.64 49.11 134.85 49.11 134.85 49.11 2.64 49.11 2.64 49.11"/><polygon class="cls-19" points="2.66 49.11 134.78 49.11 134.78 49.11 2.66 49.11 2.66 49.11"/><polygon class="cls-20" points="2.64 49.11 134.85 49.11 134.85 49.11 2.64 49.11 2.64 49.11"/><polygon class="cls-21" points="2.92 49.11 134.8 49.11 134.8 49.11 2.92 49.11 2.92 49.11"/><rect class="cls-22" x="2.48" y="48.11" width="132" height="1"/><polygon class="cls-23" points="2.64 48.11 134.85 48.11 134.85 48.11 2.64 48.11 2.64 48.11"/><polygon class="cls-24" points="2.66 48.11 134.78 48.11 134.78 48.11 2.66 48.11 2.66 48.11"/><polygon class="cls-25" points="2.64 48.11 134.85 48.11 134.85 48.11 2.64 48.11 2.64 48.11"/><polygon class="cls-26" points="2.92 48.11 134.8 48.11 134.8 48.11 2.92 48.11 2.92 48.11"/><polygon class="cls-27" points="2.64 48.11 134.85 48.11 134.85 48.11 2.64 48.11 2.64 48.11"/><polygon class="cls-28" points="2.66 48.11 134.78 48.11 134.78 48.11 2.66 48.11 2.66 48.11"/><rect class="cls-29" x="2.48" y="47.11" width="132" height="1"/><polygon class="cls-30" points="2.64 47.11 134.85 47.11 134.85 47.11 2.64 47.11 2.64 47.11"/><rect class="cls-31" x="2.48" y="46.11" width="132" height="1"/><polygon class="cls-32" points="2.64 46.11 134.85 46.11 134.85 46.11 2.64 46.11 2.64 46.11"/><polygon class="cls-33" points="2.66 46.11 134.78 46.11 134.78 46.11 2.66 46.11 2.66 46.11"/><polygon class="cls-34" points="2.64 46.11 134.85 46.11 134.85 46.11 2.64 46.11 2.64 46.11"/><polygon class="cls-35" points="2.92 46.11 134.8 46.11 134.8 46.11 2.92 46.11 2.92 46.11"/><rect class="cls-36" x="2.48" y="45.11" width="132" height="1"/><polygon class="cls-37" points="2.64 45.11 134.85 45.11 134.85 45.11 2.64 45.11 2.64 45.11"/><polygon class="cls-38" points="2.66 45.11 134.78 45.11 134.78 45.11 2.66 45.11 2.66 45.11"/><polygon class="cls-39" points="2.64 45.11 134.85 45.11 134.85 45.11 2.64 45.11 2.64 45.11"/><polygon class="cls-40" points="2.92 45.11 134.8 45.11 134.8 45.11 2.92 45.11 2.92 45.11"/><polygon class="cls-41" points="2.64 45.11 134.85 45.11 134.85 45.11 2.64 45.11 2.64 45.11"/><polygon class="cls-42" points="2.48 45.11 134.48 45.11 134.48 45.11 2.48 45.11 2.48 45.11"/><polygon class="cls-43" points="2.64 45.11 134.85 45.11 134.85 45.11 2.64 45.11 2.64 45.11"/><polygon class="cls-44" points="2.66 45.11 134.78 45.11 134.78 45.11 2.66 45.11 2.66 45.11"/><polygon class="cls-45" points="2.92 45.11 134.8 45.11 134.8 45.11 2.92 45.11 2.92 45.11"/><polygon class="cls-46" points="2.64 45.11 134.85 45.11 134.85 45.11 2.64 45.11 2.64 45.11"/><rect class="cls-47" x="2.48" y="44.11" width="132" height="1"/><polygon class="cls-48" points="2.64 44.11 134.85 44.11 134.85 44.11 2.64 44.11 2.64 44.11"/><polygon class="cls-49" points="2.66 44.11 134.78 44.11 134.78 44.11 2.66 44.11 2.66 44.11"/><polygon class="cls-50" points="2.64 44.11 134.85 44.11 134.85 44.11 2.64 44.11 2.64 44.11"/><rect class="cls-51" x="2.48" y="43.11" width="132" height="1"/><polygon class="cls-52" points="2.66 43.11 134.78 43.11 134.78 43.11 2.66 43.11 2.66 43.11"/><polygon class="cls-53" points="2.64 43.11 134.85 43.11 134.85 43.11 2.64 43.11 2.64 43.11"/><polygon class="cls-54" points="2.92 43.11 134.8 43.11 134.8 43.11 2.92 43.11 2.92 43.11"/><polygon class="cls-55" points="2.64 43.11 134.85 43.11 134.85 43.11 2.64 43.11 2.64 43.11"/><rect class="cls-56" x="2.48" y="42.11" width="132" height="1"/><polygon class="cls-57" points="2.64 42.11 134.85 42.11 134.85 42.11 2.64 42.11 2.64 42.11"/><polygon class="cls-58" points="2.66 42.11 134.78 42.11 134.78 42.11 2.66 42.11 2.66 42.11"/><polygon class="cls-59" points="2.92 42.11 134.8 42.11 134.8 42.11 2.92 42.11 2.92 42.11"/><polygon class="cls-60" points="2.64 42.11 134.85 42.11 134.85 42.11 2.64 42.11 2.64 42.11"/><rect class="cls-61" x="2.48" y="41.11" width="132" height="1"/><polygon class="cls-62" points="2.64 41.11 134.85 41.11 134.85 41.11 2.64 41.11 2.64 41.11"/><polygon class="cls-63" points="2.66 41.11 134.78 41.11 134.78 41.11 2.66 41.11 2.66 41.11"/><polygon class="cls-64" points="2.64 41.11 134.85 41.11 134.85 41.11 2.64 41.11 2.64 41.11"/><polygon class="cls-65" points="2.92 41.11 134.8 41.11 134.8 41.11 2.92 41.11 2.92 41.11"/><rect class="cls-66" x="2.48" y="40.11" width="132" height="1"/><polygon class="cls-67" points="2.64 40.11 134.85 40.11 134.85 40.11 2.64 40.11 2.64 40.11"/><polygon class="cls-68" points="2.66 40.11 134.78 40.11 134.78 40.11 2.66 40.11 2.66 40.11"/><polygon class="cls-69" points="2.64 40.11 134.85 40.11 134.85 40.11 2.64 40.11 2.64 40.11"/><rect class="cls-70" x="2.48" y="39.11" width="132" height="1"/><polygon class="cls-71" points="2.64 39.11 134.85 39.11 134.85 39.11 2.64 39.11 2.64 39.11"/><polygon class="cls-72" points="2.92 39.11 134.8 39.11 134.8 39.11 2.92 39.11 2.92 39.11"/><polygon class="cls-73" points="2.66 39.11 134.78 39.11 134.78 39.11 2.66 39.11 2.66 39.11"/><polygon class="cls-74" points="2.64 39.11 134.85 39.11 134.85 39.11 2.64 39.11 2.64 39.11"/><polygon class="cls-75" points="2.48 39.11 134.48 39.11 134.48 39.11 2.48 39.11 2.48 39.11"/><polygon class="cls-76" points="2.64 39.11 134.85 39.11 134.85 39.11 2.64 39.11 2.64 39.11"/><polygon class="cls-77" points="2.66 39.11 134.78 39.11 134.78 39.11 2.66 39.11 2.66 39.11"/><polygon class="cls-78" points="2.64 39.11 134.85 39.11 134.85 39.11 2.64 39.11 2.64 39.11"/><polygon class="cls-79" points="2.92 39.11 134.8 39.11 134.8 39.11 2.92 39.11 2.92 39.11"/><rect class="cls-80" x="2.48" y="38.11" width="132" height="1"/><polygon class="cls-81" points="2.64 38.11 134.85 38.11 134.85 38.11 2.64 38.11 2.64 38.11"/><polygon class="cls-82" points="2.66 38.11 134.78 38.11 134.78 38.11 2.66 38.11 2.66 38.11"/><polygon class="cls-83" points="2.64 38.11 134.85 38.11 134.85 38.11 2.64 38.11 2.64 38.11"/><rect class="cls-84" x="2.48" y="37.11" width="132" height="1"/><polygon class="cls-85" points="2.64 37.11 134.85 37.11 134.85 37.11 2.64 37.11 2.64 37.11"/><polygon class="cls-86" points="2.92 37.11 134.8 37.11 134.8 37.11 2.92 37.11 2.92 37.11"/><polygon class="cls-87" points="2.66 37.11 134.78 37.11 134.78 37.11 2.66 37.11 2.66 37.11"/><polygon class="cls-88" points="2.64 37.11 134.85 37.11 134.85 37.11 2.64 37.11 2.64 37.11"/><rect class="cls-89" x="2.48" y="36.11" width="132" height="1"/><polygon class="cls-90" points="2.64 36.11 134.85 36.11 134.85 36.11 2.64 36.11 2.64 36.11"/><polygon class="cls-91" points="2.92 36.11 134.8 36.11 134.8 36.11 2.92 36.11 2.92 36.11"/><polygon class="cls-92" points="2.64 36.11 134.85 36.11 134.85 36.11 2.64 36.11 2.64 36.11"/><polygon class="cls-93" points="2.66 36.11 134.78 36.11 134.78 36.11 2.66 36.11 2.66 36.11"/><rect class="cls-94" x="2.48" y="35.11" width="132" height="1"/><polygon class="cls-95" points="2.64 35.11 134.85 35.11 134.85 35.11 2.64 35.11 2.64 35.11"/><polygon class="cls-96" points="2.92 35.11 134.8 35.11 134.8 35.11 2.92 35.11 2.92 35.11"/><polygon class="cls-97" points="2.64 35.11 134.85 35.11 134.85 35.11 2.64 35.11 2.64 35.11"/><polygon class="cls-98" points="2.66 35.11 134.78 35.11 134.78 35.11 2.66 35.11 2.66 35.11"/><polygon class="cls-99" points="2.64 35.11 134.85 35.11 134.85 35.11 2.64 35.11 2.64 35.11"/><rect class="cls-100" x="2.48" y="34.11" width="132" height="1"/><polygon class="cls-101" points="2.64 34.11 134.85 34.11 134.85 34.11 2.64 34.11 2.64 34.11"/><polygon class="cls-102" points="2.66 34.11 134.78 34.11 134.78 34.11 2.66 34.11 2.66 34.11"/><polygon class="cls-103" points="2.48 34.11 134.48 34.11 134.48 34.11 2.48 34.11 2.48 34.11"/><polygon class="cls-104" points="2.64 34.11 134.85 34.11 134.85 34.11 2.64 34.11 2.64 34.11"/><polygon class="cls-105" points="2.92 34.11 134.8 34.11 134.8 34.11 2.92 34.11 2.92 34.11"/><polygon class="cls-106" points="2.64 34.11 134.85 34.11 134.85 34.11 2.64 34.11 2.64 34.11"/><polygon class="cls-107" points="2.66 34.11 134.78 34.11 134.78 34.11 2.66 34.11 2.66 34.11"/><polygon class="cls-108" points="2.64 34.11 134.85 34.11 134.85 34.11 2.64 34.11 2.64 34.11"/><rect class="cls-109" x="2.48" y="33.11" width="132" height="1"/><polygon class="cls-110" points="2.92 33.11 134.8 33.11 134.8 33.11 2.92 33.11 2.92 33.11"/><polygon class="cls-111" points="2.64 33.11 134.85 33.11 134.85 33.11 2.64 33.11 2.64 33.11"/><polygon class="cls-112" points="2.66 33.11 134.78 33.11 134.78 33.11 2.66 33.11 2.66 33.11"/><polygon class="cls-113" points="2.64 33.11 134.85 33.11 134.85 33.11 2.64 33.11 2.64 33.11"/><rect class="cls-114" x="2.48" y="32.11" width="132" height="1"/><polygon class="cls-115" points="2.64 32.11 134.85 32.11 134.85 32.11 2.64 32.11 2.64 32.11"/><polygon class="cls-116" points="2.92 32.11 134.8 32.11 134.8 32.11 2.92 32.11 2.92 32.11"/><polygon class="cls-117" points="2.66 32.11 134.78 32.11 134.78 32.11 2.66 32.11 2.66 32.11"/><polygon class="cls-118" points="2.64 32.11 134.85 32.11 134.85 32.11 2.64 32.11 2.64 32.11"/><rect class="cls-119" x="2.48" y="31.11" width="132" height="1"/><polygon class="cls-120" points="2.64 31.11 134.85 31.11 134.85 31.11 2.64 31.11 2.64 31.11"/><polygon class="cls-121" points="2.66 31.11 134.78 31.11 134.78 31.11 2.66 31.11 2.66 31.11"/><polygon class="cls-122" points="2.64 31.11 134.85 31.11 134.85 31.11 2.64 31.11 2.64 31.11"/><rect class="cls-123" x="2.48" y="30.11" width="132" height="1"/></g></g><path class="cls-124" d="M179.78,61.39a15,15,0,0,0-15,15h29.93A15,15,0,0,0,179.78,61.39Z" transform="translate(-67.52 -25.22)"/><path class="cls-124" d="M103.69,61.39a15,15,0,0,0-15,15h29.93A15,15,0,0,0,103.69,61.39Z" transform="translate(-67.52 -25.22)"/><path d="M192.25,87.58H77.51a1.25,1.25,0,1,1,0-2.49H192.25A1.25,1.25,0,1,1,192.25,87.58Z" transform="translate(-67.52 -25.22)"/><polyline class="cls-125" points="67.35 4.99 73.59 1.25 83.56 1.25 83.56 4.99 77.33 4.99"/><path d="M151.09,31.46h-6.24V29h5V27.72h-8.39l-5.94,3.56-1.28-2.14,6.24-3.74a1.25,1.25,0,0,1,.64-0.18h10a1.25,1.25,0,0,1,1.25,1.25v3.74A1.25,1.25,0,0,1,151.09,31.46Z" transform="translate(-67.52 -25.22)"/><path d="M198.48,77.61H70A1.25,1.25,0,0,1,68.83,76l5-16.18c0.85-3.35,4.27-9.64,11.18-9.64v2.49c-6.74,0-8.75,7.71-8.77,7.79l0,0.06-4.49,14.6H197.24v-10a1.25,1.25,0,0,1,1.25-1.25H201V56.4h-1.25V53.91h2.49a1.25,1.25,0,0,1,1.25,1.25v10a1.25,1.25,0,0,1-1.25,1.25h-2.49v10A1.25,1.25,0,0,1,198.48,77.61Z" transform="translate(-67.52 -25.22)"/><g class="cls-126"><rect class="cls-127" x="67.48" y="24.11" width="22" height="2"/><polygon class="cls-127" points="67.5 24.11 89.01 24.11 89.01 24.11 67.5 24.11 67.5 24.11"/><polygon class="cls-128" points="67.6 24.11 89.44 24.11 89.44 24.11 67.6 24.11 67.6 24.11"/><polygon class="cls-129" points="67.5 24.11 89.01 24.11 89.01 24.11 67.5 24.11 67.5 24.11"/><polygon class="cls-130" points="67.48 24.11 89.48 24.11 89.48 24.11 67.48 24.11 67.48 24.11"/><polygon class="cls-131" points="67.5 24.11 89.01 24.11 89.01 24.11 67.5 24.11 67.5 24.11"/><polygon class="cls-132" points="67.26 24.11 89.12 24.11 89.12 24.11 67.26 24.11 67.26 24.11"/><polygon class="cls-133" points="67.5 24.11 89.01 24.11 89.01 24.11 67.5 24.11 67.5 24.11"/><polygon class="cls-134" points="67.6 24.11 89.44 24.11 89.44 24.11 67.6 24.11 67.6 24.11"/><polygon class="cls-135" points="67.5 24.11 89.01 24.11 89.01 24.11 67.5 24.11 67.5 24.11"/><rect class="cls-136" x="67.48" y="23.11" width="22" height="1"/><polygon class="cls-137" points="67.5 23.11 89.01 23.11 89.01 23.11 67.5 23.11 67.5 23.11"/><polygon class="cls-138" points="67.26 23.11 89.12 23.11 89.12 23.11 67.26 23.11 67.26 23.11"/><polygon class="cls-139" points="67.5 23.11 89.01 23.11 89.01 23.11 67.5 23.11 67.5 23.11"/><polygon class="cls-140" points="67.6 23.11 89.44 23.11 89.44 23.11 67.6 23.11 67.6 23.11"/><polygon class="cls-141" points="67.5 23.11 89.01 23.11 89.01 23.11 67.5 23.11 67.5 23.11"/><polygon class="cls-142" points="67.26 23.11 89.12 23.11 89.12 23.11 67.26 23.11 67.26 23.11"/><polygon class="cls-143" points="67.5 23.11 89.01 23.11 89.01 23.11 67.5 23.11 67.5 23.11"/><rect class="cls-144" x="67.48" y="22.11" width="22" height="1"/><polygon class="cls-145" points="67.5 22.11 89.01 22.11 89.01 22.11 67.5 22.11 67.5 22.11"/><rect class="cls-146" x="67.48" y="21.11" width="22" height="1"/><polygon class="cls-147" points="67.5 21.11 89.01 21.11 89.01 21.11 67.5 21.11 67.5 21.11"/><polygon class="cls-148" points="67.26 21.11 89.12 21.11 89.12 21.11 67.26 21.11 67.26 21.11"/><polygon class="cls-149" points="67.5 21.11 89.01 21.11 89.01 21.11 67.5 21.11 67.5 21.11"/><polygon class="cls-150" points="67.6 21.11 89.44 21.11 89.44 21.11 67.6 21.11 67.6 21.11"/><polygon class="cls-151" points="67.5 21.11 89.01 21.11 89.01 21.11 67.5 21.11 67.5 21.11"/><rect class="cls-152" x="67.48" y="20.11" width="22" height="1"/><polygon class="cls-153" points="67.5 20.11 89.01 20.11 89.01 20.11 67.5 20.11 67.5 20.11"/><polygon class="cls-154" points="67.26 20.11 89.12 20.11 89.12 20.11 67.26 20.11 67.26 20.11"/><polygon class="cls-155" points="67.6 20.11 89.44 20.11 89.44 20.11 67.6 20.11 67.6 20.11"/><polygon class="cls-156" points="67.5 20.11 89.01 20.11 89.01 20.11 67.5 20.11 67.5 20.11"/><rect class="cls-157" x="67.48" y="19.11" width="22" height="1"/><polygon class="cls-158" points="67.5 19.11 89.01 19.11 89.01 19.11 67.5 19.11 67.5 19.11"/><polygon class="cls-159" points="67.26 19.11 89.12 19.11 89.12 19.11 67.26 19.11 67.26 19.11"/><polygon class="cls-160" points="67.5 19.11 89.01 19.11 89.01 19.11 67.5 19.11 67.5 19.11"/><polygon class="cls-161" points="67.6 19.11 89.44 19.11 89.44 19.11 67.6 19.11 67.6 19.11"/><polygon class="cls-162" points="67.5 19.11 89.01 19.11 89.01 19.11 67.5 19.11 67.5 19.11"/><rect class="cls-163" x="67.48" y="18.11" width="22" height="1"/><polygon class="cls-164" points="67.5 18.11 89.01 18.11 89.01 18.11 67.5 18.11 67.5 18.11"/><polygon class="cls-165" points="67.26 18.11 89.12 18.11 89.12 18.11 67.26 18.11 67.26 18.11"/><polygon class="cls-166" points="67.5 18.11 89.01 18.11 89.01 18.11 67.5 18.11 67.5 18.11"/><polygon class="cls-167" points="67.48 18.11 89.48 18.11 89.48 18.11 67.48 18.11 67.48 18.11"/><polygon class="cls-168" points="67.5 18.11 89.01 18.11 89.01 18.11 67.5 18.11 67.5 18.11"/><polygon class="cls-169" points="67.26 18.11 89.12 18.11 89.12 18.11 67.26 18.11 67.26 18.11"/><rect class="cls-169" x="67.48" y="10.11" width="22" height="8"/></g><g class="cls-170"><polygon class="cls-127" points="44.9 26.11 47.12 26.11 44.9 26.11 44.9 26.11"/><polygon class="cls-127" points="44.92 26.11 62.56 26.11 62.56 26.11 47.11 26.11 44.92 26.11 44.92 26.11"/><rect class="cls-128" x="44.48" y="25.11" width="18" height="1"/><rect class="cls-129" x="44.48" y="24.11" width="18" height="1"/><polygon class="cls-130" points="44.92 24.11 62.41 24.11 62.41 24.11 44.92 24.11 44.92 24.11"/><polygon class="cls-131" points="44.92 24.11 62.56 24.11 62.56 24.11 44.92 24.11 44.92 24.11"/><polygon class="cls-132" points="44.48 24.11 62.48 24.11 62.48 24.11 44.48 24.11 44.48 24.11"/><polygon class="cls-133" points="44.92 24.11 62.56 24.11 62.56 24.11 44.92 24.11 44.92 24.11"/><rect class="cls-134" x="44.48" y="23.11" width="18" height="1"/><polygon class="cls-135" points="44.92 23.11 62.41 23.11 62.41 23.11 44.92 23.11 44.92 23.11"/><polygon class="cls-136" points="44.92 23.11 62.56 23.11 62.56 23.11 44.92 23.11 44.92 23.11"/><rect class="cls-137" x="44.48" y="22.11" width="18" height="1"/><rect class="cls-138" x="44.48" y="21.11" width="18" height="1"/><polygon class="cls-139" points="44.92 21.11 62.41 21.11 62.41 21.11 44.92 21.11 44.92 21.11"/><polygon class="cls-140" points="44.92 21.11 62.56 21.11 62.56 21.11 44.92 21.11 44.92 21.11"/><rect class="cls-141" x="44.48" y="20.11" width="18" height="1"/><polygon class="cls-142" points="44.92 20.11 62.56 20.11 62.56 20.11 44.92 20.11 44.92 20.11"/><rect class="cls-143" x="44.48" y="19.11" width="18" height="1"/><polygon class="cls-144" points="44.92 19.11 62.41 19.11 62.41 19.11 44.92 19.11 44.92 19.11"/><polygon class="cls-145" points="44.92 19.11 62.56 19.11 62.56 19.11 44.92 19.11 44.92 19.11"/><rect class="cls-146" x="44.48" y="18.11" width="18" height="1"/><polygon class="cls-147" points="44.48 18.11 62.48 18.11 62.48 18.11 44.48 18.11 44.48 18.11"/><polygon class="cls-148" points="44.92 18.11 62.41 18.11 62.41 18.11 44.92 18.11 44.92 18.11"/><polygon class="cls-149" points="44.92 18.11 62.56 18.11 62.56 18.11 44.92 18.11 44.92 18.11"/><rect class="cls-150" x="44.48" y="17.11" width="18" height="1"/><polygon class="cls-151" points="44.92 17.11 62.56 17.11 62.56 17.11 44.92 17.11 44.92 17.11"/><rect class="cls-152" x="44.48" y="16.11" width="18" height="1"/><polygon class="cls-153" points="44.92 16.11 62.41 16.11 62.41 16.11 44.92 16.11 44.92 16.11"/><rect class="cls-154" x="44.48" y="15.11" width="18" height="1"/><polygon class="cls-155" points="44.92 15.11 62.56 15.11 62.56 15.11 44.92 15.11 44.92 15.11"/><rect class="cls-156" x="44.48" y="14.11" width="18" height="1"/><polygon class="cls-157" points="44.92 14.11 62.56 14.11 62.56 14.11 44.92 14.11 44.92 14.11"/><polygon class="cls-158" points="44.92 14.11 62.41 14.11 62.41 14.11 44.92 14.11 44.92 14.11"/><rect class="cls-159" x="44.48" y="13.11" width="18" height="1"/><polygon class="cls-160" points="44.92 13.11 62.56 13.11 62.56 13.11 44.92 13.11 44.92 13.11"/><polygon class="cls-161" points="44.48 13.11 62.48 13.11 62.48 13.11 44.48 13.11 44.48 13.11"/><polygon class="cls-162" points="44.92 13.11 62.41 13.11 62.41 13.11 44.92 13.11 44.92 13.11"/><rect class="cls-163" x="44.48" y="12.11" width="18" height="1"/><polygon class="cls-164" points="44.92 12.11 62.56 12.11 62.56 12.11 44.92 12.11 44.92 12.11"/><rect class="cls-165" x="44.48" y="11.11" width="18" height="1"/><polygon class="cls-166" points="44.92 11.11 62.56 11.11 62.56 11.11 44.92 11.11 44.92 11.11"/><polygon class="cls-167" points="44.92 11.11 62.41 11.11 62.41 11.11 44.92 11.11 44.92 11.11"/><rect class="cls-168" x="44.48" y="10.11" width="18" height="1"/><polygon class="cls-169" points="55.83 10.11 62.56 10.11 62.56 10.11 44.92 10.11 44.92 10.11 55.83 10.11"/><polygon class="cls-169" points="62.57 10.11 55.83 10.11 62.57 10.11 62.57 10.11"/></g><path d="M127.89,52.66H114.63a3.61,3.61,0,0,1-3.46-3.74V37.73A3.61,3.61,0,0,1,114.5,34c4.21-.17,8.77-0.21,13.44-0.15a3.62,3.62,0,0,1,3.41,3.74V48.92A3.61,3.61,0,0,1,127.89,52.66Zm-4.54-16.35c-3,0-6,.06-8.75.17a1.15,1.15,0,0,0-.93,1.25V48.92a1.15,1.15,0,0,0,1,1.25h13.26a1.15,1.15,0,0,0,1-1.25V37.59a1.15,1.15,0,0,0-.95-1.25Z" transform="translate(-67.52 -25.22)"/><g class="cls-171"><polygon class="cls-127" points="21.16 26.11 23.92 26.11 21.16 26.11 21.16 26.11"/><polygon class="cls-127" points="21.4 26.11 39.88 26.11 39.88 26.11 23.92 26.11 21.4 26.11 21.4 26.11"/><polygon class="cls-128" points="21.12 26.11 40.06 26.11 40.06 26.11 21.12 26.11 21.12 26.11"/><rect class="cls-129" x="21.48" y="24.11" width="18" height="2"/><polygon class="cls-130" points="21.12 24.11 40.06 24.11 40.06 24.11 21.12 24.11 21.12 24.11"/><polygon class="cls-131" points="21.4 24.11 39.88 24.11 39.88 24.11 21.4 24.11 21.4 24.11"/><polygon class="cls-132" points="21.48 24.11 39.48 24.11 39.48 24.11 21.48 24.11 21.48 24.11"/><polygon class="cls-133" points="21.12 24.11 40.06 24.11 40.06 24.11 21.12 24.11 21.12 24.11"/><polygon class="cls-134" points="21.4 24.11 39.88 24.11 39.88 24.11 21.4 24.11 21.4 24.11"/><rect class="cls-135" x="21.48" y="23.11" width="18" height="1"/><polygon class="cls-136" points="21.4 23.11 39.88 23.11 39.88 23.11 21.4 23.11 21.4 23.11"/><polygon class="cls-137" points="21.12 23.11 40.06 23.11 40.06 23.11 21.12 23.11 21.12 23.11"/><rect class="cls-138" x="21.48" y="22.11" width="18" height="1"/><rect class="cls-139" x="21.48" y="21.11" width="18" height="1"/><polygon class="cls-140" points="21.12 21.11 40.06 21.11 40.06 21.11 21.12 21.11 21.12 21.11"/><rect class="cls-141" x="21.48" y="20.11" width="18" height="1"/><polygon class="cls-142" points="21.12 20.11 40.06 20.11 40.06 20.11 21.12 20.11 21.12 20.11"/><polygon class="cls-143" points="21.4 20.11 39.88 20.11 39.88 20.11 21.4 20.11 21.4 20.11"/><rect class="cls-144" x="21.48" y="19.11" width="18" height="1"/><polygon class="cls-145" points="21.12 19.11 40.06 19.11 40.06 19.11 21.12 19.11 21.12 19.11"/><polygon class="cls-146" points="21.4 19.11 39.88 19.11 39.88 19.11 21.4 19.11 21.4 19.11"/><rect class="cls-147" x="21.48" y="18.11" width="18" height="1"/><polygon class="cls-148" points="21.48 18.11 39.48 18.11 39.48 18.11 21.48 18.11 21.48 18.11"/><polygon class="cls-149" points="21.12 18.11 40.06 18.11 40.06 18.11 21.12 18.11 21.12 18.11"/><polygon class="cls-150" points="21.4 18.11 39.88 18.11 39.88 18.11 21.4 18.11 21.4 18.11"/><rect class="cls-151" x="21.48" y="17.11" width="18" height="1"/><polygon class="cls-152" points="21.12 17.11 40.06 17.11 40.06 17.11 21.12 17.11 21.12 17.11"/><polygon class="cls-153" points="21.4 17.11 39.88 17.11 39.88 17.11 21.4 17.11 21.4 17.11"/><rect class="cls-154" x="21.48" y="16.11" width="18" height="1"/><rect class="cls-155" x="21.48" y="15.11" width="18" height="1"/><polygon class="cls-156" points="21.4 15.11 39.88 15.11 39.88 15.11 21.4 15.11 21.4 15.11"/><polygon class="cls-157" points="21.12 15.11 40.06 15.11 40.06 15.11 21.12 15.11 21.12 15.11"/><rect class="cls-158" x="21.48" y="14.11" width="18" height="1"/><polygon class="cls-159" points="21.4 14.11 39.88 14.11 39.88 14.11 21.4 14.11 21.4 14.11"/><rect class="cls-160" x="21.48" y="13.11" width="18" height="1"/><polygon class="cls-161" points="21.12 13.11 40.06 13.11 40.06 13.11 21.12 13.11 21.12 13.11"/><polygon class="cls-162" points="21.4 13.11 39.88 13.11 39.88 13.11 21.4 13.11 21.4 13.11"/><polygon class="cls-163" points="21.48 13.11 39.48 13.11 39.48 13.11 21.48 13.11 21.48 13.11"/><polygon class="cls-164" points="21.12 13.11 40.06 13.11 40.06 13.11 21.12 13.11 21.12 13.11"/><rect class="cls-165" x="21.48" y="12.11" width="18" height="1"/><polygon class="cls-166" points="21.4 12.11 39.88 12.11 39.88 12.11 21.4 12.11 21.4 12.11"/><rect class="cls-167" x="21.48" y="11.11" width="18" height="1"/><polygon class="cls-168" points="21.4 11.11 39.88 11.11 39.88 11.11 21.4 11.11 21.4 11.11"/><polygon class="cls-169" points="21.12 11.11 40.06 11.11 40.06 11.11 21.12 11.11 21.12 11.11"/><polygon class="cls-169" points="40.06 11.11 21.04 11.11 21.04 11.11 40.06 11.11 40.06 11.11"/></g><path d="M105.23,52.66H91.44A3.38,3.38,0,0,1,88.56,51a4,4,0,0,1-.16-3.88l1.16-2.31a17.81,17.81,0,0,1,13.67-10l1.66-.18a3.27,3.27,0,0,1,2.54.86,3.86,3.86,0,0,1,1.24,2.87V48.92A3.61,3.61,0,0,1,105.23,52.66Zm0-15.58h-0.07l-1.63.17A15.33,15.33,0,0,0,91.8,45.94l-1.16,2.31a1.49,1.49,0,0,0,.06,1.45,0.91,0.91,0,0,0,.75.47h13.79a1.15,1.15,0,0,0,1-1.25V38.33a1.37,1.37,0,0,0-.42-1A0.82,0.82,0,0,0,105.22,37.08Z" transform="translate(-67.52 -25.22)"/><path class="cls-172" d="M145,52.61a1.25,1.25,0,0,1-.88-2.13l4.1-4.1A1.25,1.25,0,0,1,150,48.15l-4.1,4.1A1.24,1.24,0,0,1,145,52.61Z" transform="translate(-67.52 -25.22)"/><path d="M68.77,72.62v3.74h20a14.94,14.94,0,0,1,.49-3.74H68.77Z" transform="translate(-67.52 -25.22)"/><path d="M88.73,77.61h-20a1.25,1.25,0,0,1-1.25-1.25V72.62a1.25,1.25,0,0,1,1.25-1.25H89.22a1.25,1.25,0,0,1,1.21,1.56A13.76,13.76,0,0,0,90,76.36,1.25,1.25,0,0,1,88.73,77.61ZM70,75.11H87.53q0.05-.62.15-1.25H70v1.25Z" transform="translate(-67.52 -25.22)"/><path d="M201.2,56.55H198.7A5.78,5.78,0,0,0,194,50.66c-10.52-1.47-14.52-1.89-33-3a1.25,1.25,0,0,1-.89-0.46L148.88,33.5a5.33,5.33,0,0,0-4-2H104.94A20.58,20.58,0,0,0,86.58,43.27c-1.8,4.43-3.77,9.18-3.79,9.23l-2.3-1s2-4.79,3.78-9.21A22.88,22.88,0,0,1,104.94,29h39.91a7.82,7.82,0,0,1,6,3l10.88,13.29c18.12,1.08,22.18,1.51,32.67,3A8.28,8.28,0,0,1,201.2,56.55Z" transform="translate(-67.52 -25.22)"/><path d="M196,76.36h-2.49a13.72,13.72,0,1,0-27.44,0h-2.49A16.21,16.21,0,1,1,196,76.36Z" transform="translate(-67.52 -25.22)"/><path d="M119.91,76.36h-2.49a13.72,13.72,0,1,0-27.44,0H87.48A16.21,16.21,0,0,1,119.91,76.36Z" transform="translate(-67.52 -25.22)"/><circle class="cls-125" cx="36.17" cy="51.14" r="9.98"/><path d="M103.69,87.58a11.23,11.23,0,1,1,11.23-11.23A11.24,11.24,0,0,1,103.69,87.58Zm0-20a8.73,8.73,0,1,0,8.73,8.73A8.74,8.74,0,0,0,103.69,67.63Z" transform="translate(-67.52 -25.22)"/><path d="M106,68.71A10,10,0,0,0,97.9,84.48a10,10,0,0,0,13.91-13.91A9.93,9.93,0,0,0,106,68.71Z" transform="translate(-67.52 -25.22)"/><circle class="cls-4" cx="36.17" cy="51.14" r="4.37"/><circle cx="36.17" cy="51.14" r="1.56"/><circle class="cls-125" cx="112.25" cy="51.14" r="9.98"/><path d="M179.77,87.58A11.23,11.23,0,1,1,191,76.36,11.24,11.24,0,0,1,179.77,87.58Zm0-20a8.73,8.73,0,1,0,8.73,8.73A8.74,8.74,0,0,0,179.77,67.63Z" transform="translate(-67.52 -25.22)"/><path d="M118.17,72.62a14.94,14.94,0,0,1,.49,3.74h46.15a14.94,14.94,0,0,1,.49-3.74H118.17Z" transform="translate(-67.52 -25.22)"/><path d="M164.81,77.61H118.66a1.25,1.25,0,0,1-1.25-1.25,13.77,13.77,0,0,0-.45-3.43,1.25,1.25,0,0,1,1.21-1.56H165.3a1.25,1.25,0,0,1,1.21,1.56,13.78,13.78,0,0,0-.45,3.43A1.25,1.25,0,0,1,164.81,77.61Zm-45-2.49h43.76q0.05-.62.15-1.25H119.7Q119.81,74.49,119.86,75.11Z" transform="translate(-67.52 -25.22)"/><path d="M194.25,72.62a14.94,14.94,0,0,1,.49,3.74H201V72.62h-6.73Z" transform="translate(-67.52 -25.22)"/><path d="M201,77.61h-6.24a1.25,1.25,0,0,1-1.25-1.25,13.76,13.76,0,0,0-.45-3.43,1.25,1.25,0,0,1,1.21-1.56H201a1.25,1.25,0,0,1,1.25,1.25v3.74A1.25,1.25,0,0,1,201,77.61Zm-5-2.49h3.79V73.86h-3.95Q195.89,74.49,195.94,75.11Z" transform="translate(-67.52 -25.22)"/><path d="M201,87.58h-3.74a1.25,1.25,0,1,1,0-2.49H201A1.25,1.25,0,1,1,201,87.58Z" transform="translate(-67.52 -25.22)"/><path d="M72.51,87.58H68.77a1.25,1.25,0,1,1,0-2.49h3.74A1.25,1.25,0,0,1,72.51,87.58Z" transform="translate(-67.52 -25.22)"/><path d="M247.28,69.58h8.58A1.29,1.29,0,0,1,257.31,71v3.21a1.29,1.29,0,0,1-1.46,1.46H242.61a1.29,1.29,0,0,1-1.46-1.46v-21a1.29,1.29,0,0,1,1.46-1.46h3.21a1.29,1.29,0,0,1,1.46,1.46V69.58Z" transform="translate(-67.52 -25.22)"/><path d="M279,51.73a1.29,1.29,0,0,1,1.46,1.46v21A1.29,1.29,0,0,1,279,75.7h-3.21a1.29,1.29,0,0,1-1.46-1.46v-21a1.29,1.29,0,0,1,1.46-1.46H279Z" transform="translate(-67.52 -25.22)"/><path d="M299.41,75.7A1.29,1.29,0,0,1,298,74.24v-21a1.29,1.29,0,0,1,1.46-1.46h9a7.71,7.71,0,0,1,5.18,1.81,7.24,7.24,0,0,1,1.59,1.88,7,7,0,0,1,.78,3.4v0a5.54,5.54,0,0,1-.74,2.69A3.11,3.11,0,0,1,313.72,63a4.48,4.48,0,0,1,2,1.39,6.25,6.25,0,0,1,1.55,3.69,7.83,7.83,0,0,1-.52,3.17,7.2,7.2,0,0,1-2.3,3,7.1,7.1,0,0,1-4.37,1.36H299.41Zm4.37-18.52v4h4.31a2.46,2.46,0,0,0,1.46-.49,1.81,1.81,0,0,0,.71-1.42,1.87,1.87,0,0,0-1.85-2.11h-4.63Zm0,9v4h5.31a1.9,1.9,0,0,0,2.1-2c0-1.39-.87-2-2.3-2h-5.12Z" transform="translate(-67.52 -25.22)"/><path d="M352.84,59.6a7.9,7.9,0,0,1-2.72,6.18,3.08,3.08,0,0,1-.68.45,3.28,3.28,0,0,0-.39.16L353.26,74c0.62,1,0,1.68-1.13,1.68h-3.56a1.7,1.7,0,0,1-1.68-1.13l-3.82-7.41h-2.95v7.09a1.29,1.29,0,0,1-1.46,1.46h-3.21A1.29,1.29,0,0,1,334,74.24v-21a1.29,1.29,0,0,1,1.46-1.46h9.84a7.65,7.65,0,0,1,5.18,1.81,7.27,7.27,0,0,1,1.59,2.27A9.49,9.49,0,0,1,352.84,59.6Zm-5.93,0a1.81,1.81,0,0,0-1.94-2h-4.86v4h4.63A2.06,2.06,0,0,0,346.91,59.6Z" transform="translate(-67.52 -25.22)"/><path d="M386.58,74.24a1.29,1.29,0,0,1-1.46,1.46H371.23a1.29,1.29,0,0,1-1.46-1.46v-21a1.29,1.29,0,0,1,1.46-1.46h13.89a1.29,1.29,0,0,1,1.46,1.46V56.4a1.29,1.29,0,0,1-1.46,1.46H375.9v3h6.8a1.29,1.29,0,0,1,1.46,1.46v2.75a1.29,1.29,0,0,1-1.46,1.46h-6.8v3h9.23A1.29,1.29,0,0,1,386.58,71v3.21Z" transform="translate(-67.52 -25.22)"/><path d="M410.8,75.7a1.29,1.29,0,0,1-1.46-1.46V57.85h-5a1.29,1.29,0,0,1-1.46-1.46V53.19a1.29,1.29,0,0,1,1.46-1.46h16.09a1.29,1.29,0,0,1,1.46,1.46V56.4a1.29,1.29,0,0,1-1.46,1.46h-5V74.24A1.29,1.29,0,0,1,414,75.7H410.8Z" transform="translate(-67.52 -25.22)"/><path d="M447.4,51.73a1.67,1.67,0,0,1,1.68,1.17L456.46,74a1.12,1.12,0,0,1-1.2,1.68H451.8a1.58,1.58,0,0,1-1.65-1.2l-1-2.95H442l-1,2.95a1.64,1.64,0,0,1-1.68,1.2h-3.5a1.12,1.12,0,0,1-1.2-1.68l7.41-21.11a1.63,1.63,0,0,1,1.65-1.17h3.69Zm0.39,14.51-2.23-6.64-2,6.64h4.27Z" transform="translate(-67.52 -25.22)"/><path d="M483.79,58.18l3.72-5.51a2.07,2.07,0,0,1,1.78-.94h4.14c1.2,0,1.62.78,0.94,1.78l-6.9,10.1,7,10.3c0.68,1,.26,1.78-0.94,1.78H489.4a2.07,2.07,0,0,1-1.78-.94l-3.82-5.67-3.85,5.67a2.07,2.07,0,0,1-1.78.94H474c-1.2,0-1.62-.78-0.94-1.78l7-10.3-6.9-10.1c-0.68-1-.26-1.78.94-1.78h4.14a2.07,2.07,0,0,1,1.78.94Z" transform="translate(-67.52 -25.22)"/><path d="M516.37,51.73a1.29,1.29,0,0,1,1.46,1.46v21a1.29,1.29,0,0,1-1.46,1.46h-3.21a1.29,1.29,0,0,1-1.46-1.46v-21a1.29,1.29,0,0,1,1.46-1.46h3.21Z" transform="translate(-67.52 -25.22)"/><path d="M182.1,68.71A10,10,0,0,0,174,84.48,10,10,0,0,0,187.9,70.57,9.93,9.93,0,0,0,182.1,68.71Z" transform="translate(-67.52 -25.22)"/><circle class="cls-4" cx="112.25" cy="51.14" r="4.37"/><circle cx="112.25" cy="51.14" r="1.56"/><path class="cls-172" d="M139.36,48.42h1a13.22,13.22,0,0,0,1-5h1.94a0.31,0.31,0,0,0,.14-0.58l-1.83-.91L141.86,40a0.31,0.31,0,0,0-.31-0.31h-6.68v9.23a2.36,2.36,0,0,0,2.21,2.49h2.28v-3Z" transform="translate(-67.52 -25.22)"/><path d="M153.73,52.66H137.08a3.61,3.61,0,0,1-3.46-3.74V37.8A3.88,3.88,0,0,1,134.76,35a3.37,3.37,0,0,1,2.43-1l2.61,0c1.85,0,3.3,0,4.74.17a5.46,5.46,0,0,1,3.12,1.7c0.72,0.77,8,9.66,8.81,10.67l0.07,0.1a4,4,0,0,1,.18,4.07A3.38,3.38,0,0,1,153.73,52.66ZM137.12,36.55a0.88,0.88,0,0,0-.62.27,1.37,1.37,0,0,0-.38,1V48.92a1.15,1.15,0,0,0,1,1.25h16.65a0.92,0.92,0,0,0,.79-0.54,1.5,1.5,0,0,0,0-1.47c-3.22-3.95-8.15-10-8.65-10.49a3.08,3.08,0,0,0-1.55-.92c-1.33-.13-2.73-0.14-4.52-0.16l-2.63,0h0Z" transform="translate(-67.52 -25.22)"/><rect x="75.66" y="24.94" width="16.65" height="2.49"/></g></g></svg>