<svg xmlns="http://www.w3.org/2000/svg" xmlns:xlink="http://www.w3.org/1999/xlink" viewBox="0 0 448 258.22"><defs><style>.cls-1{fill:none;}.cls-2{isolation:isolate;}.cls-3{fill:#eee;}.cls-4{fill:#ccc;}.cls-5{fill:#ffde00;}.cls-6{opacity:0.5;mix-blend-mode:multiply;}.cls-7{clip-path:url(#clip-path);}.cls-8{fill:#f8f6e9;}.cls-9{fill:#f8f5e8;}.cls-10{fill:#f7f5e7;}.cls-11{fill:#f7f4e6;}.cls-12{fill:#f7f4e5;}.cls-13{fill:#f6f4e4;}.cls-14{fill:#f6f3e3;}.cls-15{fill:#f6f3e2;}.cls-16{fill:#f5f2e1;}.cls-17{fill:#f5f2e0;}.cls-18{fill:#f5f1df;}.cls-19{fill:#f4f1de;}.cls-20{fill:#f4f1dd;}.cls-21{fill:#f4f0dc;}.cls-22{fill:#f3f0db;}.cls-23{fill:#f3efda;}.cls-24{fill:#f3efd9;}.cls-25{fill:#f2efd8;}.cls-26{fill:#f2eed7;}.cls-27{fill:#f2eed6;}.cls-28{fill:#f1edd5;}.cls-29{fill:#f1edd4;}.cls-30{fill:#f1ecd3;}.cls-31{fill:#f1ecd2;}.cls-32{fill:#f0ecd1;}.cls-33{fill:#f0ebd0;}.cls-34{fill:#f0ebcf;}.cls-35{fill:#efeace;}.cls-36{fill:#efeacd;}.cls-37{fill:#efe9cc;}.cls-38{fill:#eee9cb;}.cls-39{fill:#eee9ca;}.cls-40{fill:#eee8c9;}.cls-41{fill:#ede8c8;}.cls-42{fill:#ede7c7;}.cls-43{fill:#ede7c6;}.cls-44{fill:#ece6c5;}.cls-45{fill:#ece6c4;}.cls-46{fill:#ece6c3;}.cls-47{fill:#ebe5c2;}.cls-48{fill:#ebe5c1;}.cls-49{fill:#ebe4c0;}.cls-50{fill:#eae4bf;}.cls-51{fill:#eae4be;}.cls-52{fill:#eae3bd;}.cls-53{fill:#e9e3bc;}.cls-54{fill:#e9e2bb;}.cls-55{fill:#e9e2ba;}.cls-56{fill:#e8e1b9;}.cls-57{fill:#e8e1b8;}.cls-58{fill:#e8e1b7;}.cls-59{fill:#e7e0b6;}.cls-60{fill:#e7e0b5;}.cls-61{fill:#e7dfb4;}.cls-62{fill:#e7dfb3;}.cls-63{fill:#e6deb2;}.cls-64{fill:#e6deb1;}.cls-65{fill:#e6deb0;}.cls-66{fill:#e5ddaf;}.cls-67{fill:#e5ddae;}.cls-68{fill:#e5dcad;}.cls-69{fill:#e4dcac;}.cls-70{fill:#e4dbab;}.cls-71{fill:#e4dbaa;}.cls-72{fill:#e3dba9;}.cls-73{fill:#e3daa8;}.cls-74{fill:#e3daa7;}.cls-75{fill:#e2d9a6;}.cls-76{fill:#e2d9a5;}.cls-77{fill:#e2d9a4;}.cls-78{fill:#e1d8a3;}.cls-79{fill:#e1d8a2;}.cls-80{fill:#e1d7a1;}.cls-81{fill:#e0d7a0;}.cls-82{fill:#e0d69f;}.cls-83{fill:#e0d69e;}.cls-84{fill:#dfd69d;}.cls-85{fill:#dfd59c;}.cls-86{fill:#dfd59b;}.cls-87{fill:#ded49a;}.cls-88{fill:#ded499;}.cls-89{fill:#ded398;}.cls-90{fill:#ded397;}.cls-91{fill:#ddd395;}.cls-92{fill:#ddd294;}.cls-93{fill:#ddd293;}.cls-94{fill:#dcd192;}.cls-95{fill:#dcd191;}.cls-96{fill:#dcd090;}.cls-97{fill:#dbd08f;}.cls-98{fill:#dbd08e;}.cls-99{fill:#dbcf8d;}.cls-100{fill:#dacf8c;}.cls-101{fill:#dace8b;}.cls-102{fill:#dace8a;}.cls-103{fill:#d9ce89;}.cls-104{fill:#d9cd88;}.cls-105{fill:#d9cd87;}.cls-106{fill:#d8cc86;}.cls-107{fill:#d8cc85;}.cls-108{fill:#d8cb84;}.cls-109{fill:#d7cb83;}.cls-110{fill:#d7cb82;}.cls-111{fill:#d7ca81;}.cls-112{fill:#d6ca80;}.cls-113{fill:#d6c97f;}.cls-114{fill:#d6c97e;}.cls-115{fill:#d5c87d;}.cls-116{fill:#d5c87c;}.cls-117{fill:#d5c87b;}.cls-118{fill:#d4c77a;}.cls-119{fill:#d4c779;}.cls-120{fill:#d4c678;}.cls-121{fill:#d4c677;}.cls-122{fill:#d3c576;}.cls-123{fill:#d3c575;}.cls-124{fill:#222;}.cls-125{fill:#333;}.cls-126{clip-path:url(#clip-path-2);}.cls-127{fill:#fff;}.cls-128{fill:#feffff;}.cls-129{fill:#fdfeff;}.cls-130{fill:#fcfeff;}.cls-131{fill:#fbfefe;}.cls-132{fill:#fafdfe;}.cls-133{fill:#f9fdfe;}.cls-134{fill:#f8fdfe;}.cls-135{fill:#f7fdfe;}.cls-136{fill:#f6fcfe;}.cls-137{fill:#f5fcfe;}.cls-138{fill:#f4fcfd;}.cls-139{fill:#f3fbfd;}.cls-140{fill:#f2fbfd;}.cls-141{fill:#f1fbfd;}.cls-142{fill:#f0fafd;}.cls-143{fill:#effafd;}.cls-144{fill:#eefafd;}.cls-145{fill:#edf9fc;}.cls-146{fill:#ecf9fc;}.cls-147{fill:#ebf9fc;}.cls-148{fill:#eaf9fc;}.cls-149{fill:#e8f8fc;}.cls-150{fill:#e7f8fc;}.cls-151{fill:#e6f8fc;}.cls-152{fill:#e5f7fb;}.cls-153{fill:#e4f7fb;}.cls-154{fill:#e3f7fb;}.cls-155{fill:#e2f6fb;}.cls-156{fill:#e1f6fb;}.cls-157{fill:#e0f6fb;}.cls-158{fill:#dff5fb;}.cls-159{fill:#def5fa;}.cls-160{fill:#ddf5fa;}.cls-161{fill:#dcf4fa;}.cls-162{fill:#dbf4fa;}.cls-163{fill:#daf4fa;}.cls-164{fill:#d9f4fa;}.cls-165{fill:#d8f3fa;}.cls-166{fill:#d7f3f9;}.cls-167{fill:#d6f3f9;}.cls-168{fill:#d5f2f9;}.cls-169{fill:#d4f2f9;}.cls-170{clip-path:url(#clip-path-3);}.cls-171{clip-path:url(#clip-path-4);}.cls-172{fill:#a7c1c9;}</style><clipPath id="clip-path" transform="translate(-77.52 -168.89)"><path class="cls-1" d="M257.49,286.58a8,8,0,0,1-9.07-4.94c-5.71-14.56-19.85-12.76-26.89-12.76l-114.71.06a47.47,47.47,0,0,0-5.29,11.94l-16,52h412v-36h12v-28C353.81,269.53,279.55,282,257.49,286.58Z"/></clipPath><clipPath id="clip-path-2" transform="translate(-77.52 -168.89)"><path class="cls-1" d="M300.61,252.89H354c5.84,0,9.17-7.53,5.67-12.8,0,0-25.78-31.58-28.07-34a13.53,13.53,0,0,0-7.49-4.2c-6.34-.63-12.9-0.44-23.24-0.63-4-.07-7.33,3.48-7.33,8v35.66C293.52,249.31,296.7,252.89,300.61,252.89Z"/></clipPath><clipPath id="clip-path-3" transform="translate(-77.52 -168.89)"><path class="cls-1" d="M278.2,208.54c0-4.39-3.11-8-7-8q-7-.09-14.65-0.09c-10.39,0-19.77.21-28.23,0.56-3.81.16-6.81,3.69-6.81,8v35.88c0,4.42,3.17,8,7.09,8h42.51c3.91,0,7.09-3.58,7.09-8V208.54Z"/></clipPath><clipPath id="clip-path-4" transform="translate(-77.52 -168.89)"><path class="cls-1" d="M205.52,210.93c0-4.7-3.58-8.38-7.73-8q-2.77.27-5.28,0.56c-17.07,1.93-32.23,13.18-40.72,30l-3.73,7.39c-2.69,5.33.72,12,6.16,12h44.22c3.91,0,7.09-3.58,7.09-8v-34Z"/></clipPath></defs><title>libretaxi-r5</title><g class="cls-2"><g id="Layer_1" data-name="Layer 1"><path class="cls-3" d="M509.52,268.91l12,0v24h-12" transform="translate(-77.52 -168.89)"/><path d="M521.52,296.89h-12v-8h8v-16l-8,0,0-8,12,0a4,4,0,0,1,4,4v24A4,4,0,0,1,521.52,296.89Z" transform="translate(-77.52 -168.89)"/><path class="cls-4" d="M509.52,284.11v8.78h12v-8.8Z" transform="translate(-77.52 -168.89)"/><path class="cls-4" d="M509.52,279.29v3.2h12v-3.2h-12Z" transform="translate(-77.52 -168.89)"/><path d="M521.52,296.89h-12v-8h8v-16l-8,0,0-8,12,0a4,4,0,0,1,4,4v24A4,4,0,0,1,521.52,296.89Z" transform="translate(-77.52 -168.89)"/><path class="cls-5" d="M501.8,264.89c-1.75-9.58-9-17.1-18.06-18.38-33.23-4.66-45.45-6-106.21-9.62l-36-44c-2.53-3.11-8.06-8-16-8h-128c-33.25,0-55.85,23.75-62.6,40.39-5.82,14.36-12.13,29.56-12.13,29.56H123c-16.44,6.3-21.44,26-21.44,26l-16,52h412v-36h12v-32H501.8Z" transform="translate(-77.52 -168.89)"/><g class="cls-6"><g class="cls-7"><rect class="cls-8" x="8.48" y="163.11" width="424" height="1"/><polygon class="cls-9" points="8.48 163.11 432.48 163.11 432.48 163.11 8.48 163.11 8.48 163.11"/><rect class="cls-10" x="8.48" y="162.11" width="424" height="1"/><polygon class="cls-11" points="8.48 162.11 432.48 162.11 432.48 162.11 8.48 162.11 8.48 162.11"/><rect class="cls-12" x="8.48" y="161.11" width="424" height="1"/><polygon class="cls-13" points="8.48 161.11 432.48 161.11 432.48 161.11 8.48 161.11 8.48 161.11"/><rect class="cls-14" x="8.48" y="160.11" width="424" height="1"/><rect class="cls-15" x="8.48" y="159.11" width="424" height="1"/><polygon class="cls-16" points="8.48 159.11 432.48 159.11 432.48 159.11 8.48 159.11 8.48 159.11"/><rect class="cls-17" x="8.48" y="158.11" width="424" height="1"/><polygon class="cls-18" points="8.48 158.11 432.48 158.11 432.48 158.11 8.48 158.11 8.48 158.11"/><rect class="cls-19" x="8.48" y="157.11" width="424" height="1"/><polygon class="cls-20" points="8.48 157.11 432.48 157.11 432.48 157.11 8.48 157.11 8.48 157.11"/><rect class="cls-21" x="8.48" y="156.11" width="424" height="1"/><rect class="cls-22" x="8.48" y="155.11" width="424" height="1"/><polygon class="cls-23" points="8.48 155.11 432.48 155.11 432.48 155.11 8.48 155.11 8.48 155.11"/><rect class="cls-24" x="8.48" y="154.11" width="424" height="1"/><polygon class="cls-25" points="8.48 154.11 432.48 154.11 432.48 154.11 8.48 154.11 8.48 154.11"/><rect class="cls-26" x="8.48" y="153.11" width="424" height="1"/><polygon class="cls-27" points="8.48 153.11 432.48 153.11 432.48 153.11 8.48 153.11 8.48 153.11"/><rect class="cls-28" x="8.48" y="152.11" width="424" height="1"/><rect class="cls-29" x="8.48" y="151.11" width="424" height="1"/><polygon class="cls-30" points="8.48 151.11 432.48 151.11 432.48 151.11 8.48 151.11 8.48 151.11"/><rect class="cls-31" x="8.48" y="150.11" width="424" height="1"/><polygon class="cls-32" points="8.48 150.11 432.48 150.11 432.48 150.11 8.48 150.11 8.48 150.11"/><rect class="cls-33" x="8.48" y="149.11" width="424" height="1"/><polygon class="cls-34" points="8.48 149.11 432.48 149.11 432.48 149.11 8.48 149.11 8.48 149.11"/><rect class="cls-35" x="8.48" y="148.11" width="424" height="1"/><rect class="cls-36" x="8.48" y="147.11" width="424" height="1"/><polygon class="cls-37" points="8.48 147.11 432.48 147.11 432.48 147.11 8.48 147.11 8.48 147.11"/><rect class="cls-38" x="8.48" y="146.11" width="424" height="1"/><polygon class="cls-39" points="8.48 146.11 432.48 146.11 432.48 146.11 8.48 146.11 8.48 146.11"/><rect class="cls-40" x="8.48" y="145.11" width="424" height="1"/><polygon class="cls-41" points="8.48 145.11 432.48 145.11 432.48 145.11 8.48 145.11 8.48 145.11"/><rect class="cls-42" x="8.48" y="144.11" width="424" height="1"/><polygon class="cls-43" points="8.48 144.11 432.48 144.11 432.48 144.11 8.48 144.11 8.48 144.11"/><rect class="cls-44" x="8.48" y="143.11" width="424" height="1"/><rect class="cls-45" x="8.48" y="142.11" width="424" height="1"/><polygon class="cls-46" points="8.48 142.11 432.48 142.11 432.48 142.11 8.48 142.11 8.48 142.11"/><rect class="cls-47" x="8.48" y="141.11" width="424" height="1"/><polygon class="cls-48" points="8.48 141.11 432.48 141.11 432.48 141.11 8.48 141.11 8.48 141.11"/><rect class="cls-49" x="8.48" y="140.11" width="424" height="1"/><polygon class="cls-50" points="8.48 140.11 432.48 140.11 432.48 140.11 8.48 140.11 8.48 140.11"/><rect class="cls-51" x="8.48" y="139.11" width="424" height="1"/><rect class="cls-52" x="8.48" y="138.11" width="424" height="1"/><polygon class="cls-53" points="8.48 138.11 432.48 138.11 432.48 138.11 8.48 138.11 8.48 138.11"/><rect class="cls-54" x="8.48" y="137.11" width="424" height="1"/><polygon class="cls-55" points="8.48 137.11 432.48 137.11 432.48 137.11 8.48 137.11 8.48 137.11"/><rect class="cls-56" x="8.48" y="136.11" width="424" height="1"/><polygon class="cls-57" points="8.48 136.11 432.48 136.11 432.48 136.11 8.48 136.11 8.48 136.11"/><rect class="cls-58" x="8.48" y="135.11" width="424" height="1"/><rect class="cls-59" x="8.48" y="134.11" width="424" height="1"/><polygon class="cls-60" points="8.48 134.11 432.48 134.11 432.48 134.11 8.48 134.11 8.48 134.11"/><rect class="cls-61" x="8.48" y="133.11" width="424" height="1"/><polygon class="cls-62" points="8.48 133.11 432.48 133.11 432.48 133.11 8.48 133.11 8.48 133.11"/><rect class="cls-63" x="8.48" y="132.11" width="424" height="1"/><polygon class="cls-64" points="8.48 132.11 432.48 132.11 432.48 132.11 8.48 132.11 8.48 132.11"/><rect class="cls-65" x="8.48" y="131.11" width="424" height="1"/><rect class="cls-66" x="8.48" y="130.11" width="424" height="1"/><polygon class="cls-67" points="8.48 130.11 432.48 130.11 432.48 130.11 8.48 130.11 8.48 130.11"/><rect class="cls-68" x="8.48" y="129.11" width="424" height="1"/><polygon class="cls-69" points="8.48 129.11 432.48 129.11 432.48 129.11 8.48 129.11 8.48 129.11"/><rect class="cls-70" x="8.48" y="128.11" width="424" height="1"/><polygon class="cls-71" points="8.48 128.11 432.48 128.11 432.48 128.11 8.48 128.11 8.48 128.11"/><rect class="cls-72" x="8.48" y="127.11" width="424" height="1"/><rect class="cls-73" x="8.48" y="126.11" width="424" height="1"/><polygon class="cls-74" points="8.48 126.11 432.48 126.11 432.48 126.11 8.48 126.11 8.48 126.11"/><rect class="cls-75" x="8.48" y="125.11" width="424" height="1"/><polygon class="cls-76" points="8.48 125.11 432.48 125.11 432.48 125.11 8.48 125.11 8.48 125.11"/><rect class="cls-77" x="8.48" y="124.11" width="424" height="1"/><polygon class="cls-78" points="8.48 124.11 432.48 124.11 432.48 124.11 8.48 124.11 8.48 124.11"/><rect class="cls-79" x="8.48" y="123.11" width="424" height="1"/><rect class="cls-80" x="8.48" y="122.11" width="424" height="1"/><polygon class="cls-81" points="8.48 122.11 432.48 122.11 432.48 122.11 8.48 122.11 8.48 122.11"/><rect class="cls-82" x="8.48" y="121.11" width="424" height="1"/><polygon class="cls-83" points="8.48 121.11 432.48 121.11 432.48 121.11 8.48 121.11 8.48 121.11"/><rect class="cls-84" x="8.48" y="120.11" width="424" height="1"/><polygon class="cls-85" points="8.48 120.11 432.48 120.11 432.48 120.11 8.48 120.11 8.48 120.11"/><rect class="cls-86" x="8.48" y="119.11" width="424" height="1"/><rect class="cls-87" x="8.48" y="118.11" width="424" height="1"/><polygon class="cls-88" points="8.48 118.11 432.48 118.11 432.48 118.11 8.48 118.11 8.48 118.11"/><rect class="cls-89" x="8.48" y="117.11" width="424" height="1"/><polygon class="cls-90" points="8.48 117.11 432.48 117.11 432.48 117.11 8.48 117.11 8.48 117.11"/><rect class="cls-91" x="8.48" y="116.11" width="424" height="1"/><polygon class="cls-92" points="8.48 116.11 432.48 116.11 432.48 116.11 8.48 116.11 8.48 116.11"/><rect class="cls-93" x="8.48" y="115.11" width="424" height="1"/><rect class="cls-94" x="8.48" y="114.11" width="424" height="1"/><polygon class="cls-95" points="8.48 114.11 432.48 114.11 432.48 114.11 8.48 114.11 8.48 114.11"/><rect class="cls-96" x="8.48" y="113.11" width="424" height="1"/><polygon class="cls-97" points="8.48 113.11 432.48 113.11 432.48 113.11 8.48 113.11 8.48 113.11"/><rect class="cls-98" x="8.48" y="112.11" width="424" height="1"/><polygon class="cls-99" points="8.48 112.11 432.48 112.11 432.48 112.11 8.48 112.11 8.48 112.11"/><rect class="cls-100" x="8.48" y="111.11" width="424" height="1"/><polygon class="cls-101" points="8.48 111.11 432.48 111.11 432.48 111.11 8.48 111.11 8.48 111.11"/><rect class="cls-102" x="8.48" y="110.11" width="424" height="1"/><rect class="cls-103" x="8.48" y="109.11" width="424" height="1"/><polygon class="cls-104" points="8.48 109.11 432.48 109.11 432.48 109.11 8.48 109.11 8.48 109.11"/><rect class="cls-105" x="8.48" y="108.11" width="424" height="1"/><polygon class="cls-106" points="8.48 108.11 432.48 108.11 432.48 108.11 8.48 108.11 8.48 108.11"/><rect class="cls-107" x="8.48" y="107.11" width="424" height="1"/><polygon class="cls-108" points="8.48 107.11 432.48 107.11 432.48 107.11 8.48 107.11 8.48 107.11"/><rect class="cls-109" x="8.48" y="106.11" width="424" height="1"/><rect class="cls-110" x="8.48" y="105.11" width="424" height="1"/><polygon class="cls-111" points="8.48 105.11 432.48 105.11 432.48 105.11 8.48 105.11 8.48 105.11"/><rect class="cls-112" x="8.48" y="104.11" width="424" height="1"/><polygon class="cls-113" points="8.48 104.11 432.48 104.11 432.48 104.11 8.48 104.11 8.48 104.11"/><rect class="cls-114" x="8.48" y="103.11" width="424" height="1"/><polygon class="cls-115" points="8.48 103.11 432.48 103.11 432.48 103.11 8.48 103.11 8.48 103.11"/><rect class="cls-116" x="8.48" y="102.11" width="424" height="1"/><rect class="cls-117" x="8.48" y="101.11" width="424" height="1"/><polygon class="cls-118" points="8.48 101.11 432.48 101.11 432.48 101.11 8.48 101.11 8.48 101.11"/><rect class="cls-119" x="8.48" y="100.11" width="424" height="1"/><polygon class="cls-120" points="8.48 100.11 432.48 100.11 432.48 100.11 8.48 100.11 8.48 100.11"/><rect class="cls-121" x="8.48" y="99.11" width="424" height="1"/><polygon class="cls-122" points="8.48 99.11 432.48 99.11 432.48 99.11 8.48 99.11 8.48 99.11"/><rect class="cls-123" x="8.48" y="98.11" width="424" height="1"/></g></g><path class="cls-124" d="M437.52,284.89a48,48,0,0,0-48,48h96A48,48,0,0,0,437.52,284.89Z" transform="translate(-77.52 -168.89)"/><path class="cls-124" d="M193.52,284.89a48,48,0,0,0-48,48h96A48,48,0,0,0,193.52,284.89Z" transform="translate(-77.52 -168.89)"/><path d="M477.52,368.89h-368a4,4,0,0,1,0-8h368A4,4,0,0,1,477.52,368.89Z" transform="translate(-77.52 -168.89)"/><polyline class="cls-125" points="216 16 236 4 268 4 268 16 248 16"/><path d="M345.52,188.89h-20v-8h16v-4H314.63l-19,11.43-4.12-6.86,20-12a4,4,0,0,1,2.06-.57h32a4,4,0,0,1,4,4v12A4,4,0,0,1,345.52,188.89Z" transform="translate(-77.52 -168.89)"/><path d="M497.52,336.89h-412a4,4,0,0,1-3.82-5.18l16-51.9c2.73-10.76,13.69-30.92,35.85-30.92v8c-21.62,0-28.06,24.72-28.12,25l-0.06.21L90.94,328.89H493.52v-32a4,4,0,0,1,4-4h8v-24h-4v-8h8a4,4,0,0,1,4,4v32a4,4,0,0,1-4,4h-8v32A4,4,0,0,1,497.52,336.89Z" transform="translate(-77.52 -168.89)"/><g class="cls-126"><rect class="cls-127" x="216.48" y="79.11" width="69" height="5"/><polygon class="cls-127" points="216.48 79.11 285.48 79.11 285.48 79.11 216.48 79.11 216.48 79.11"/><rect class="cls-128" x="216.48" y="78.11" width="69" height="1"/><polygon class="cls-129" points="216.48 78.11 285.48 78.11 285.48 78.11 216.48 78.11 216.48 78.11"/><rect class="cls-130" x="216.48" y="77.11" width="69" height="1"/><polygon class="cls-131" points="216.48 77.11 285.48 77.11 285.48 77.11 216.48 77.11 216.48 77.11"/><rect class="cls-132" x="216.48" y="76.11" width="69" height="1"/><polygon class="cls-133" points="216.48 76.11 285.48 76.11 285.48 76.11 216.48 76.11 216.48 76.11"/><rect class="cls-134" x="216.48" y="75.11" width="69" height="1"/><polygon class="cls-135" points="216.48 75.11 285.48 75.11 285.48 75.11 216.48 75.11 216.48 75.11"/><rect class="cls-136" x="216.48" y="74.11" width="69" height="1"/><polygon class="cls-137" points="216.48 74.11 285.48 74.11 285.48 74.11 216.48 74.11 216.48 74.11"/><rect class="cls-138" x="216.48" y="73.11" width="69" height="1"/><polygon class="cls-139" points="216.48 73.11 285.48 73.11 285.48 73.11 216.48 73.11 216.48 73.11"/><rect class="cls-140" x="216.48" y="72.11" width="69" height="1"/><polygon class="cls-141" points="216.48 72.11 285.48 72.11 285.48 72.11 216.48 72.11 216.48 72.11"/><rect class="cls-142" x="216.48" y="71.11" width="69" height="1"/><polygon class="cls-143" points="216.48 71.11 285.48 71.11 285.48 71.11 216.48 71.11 216.48 71.11"/><rect class="cls-144" x="216.48" y="70.11" width="69" height="1"/><polygon class="cls-145" points="216.48 70.11 285.48 70.11 285.48 70.11 216.48 70.11 216.48 70.11"/><rect class="cls-146" x="216.48" y="69.11" width="69" height="1"/><polygon class="cls-147" points="216.48 69.11 285.48 69.11 285.48 69.11 216.48 69.11 216.48 69.11"/><rect class="cls-148" x="216.48" y="68.11" width="69" height="1"/><polygon class="cls-149" points="216.48 68.11 285.48 68.11 285.48 68.11 216.48 68.11 216.48 68.11"/><rect class="cls-150" x="216.48" y="67.11" width="69" height="1"/><polygon class="cls-151" points="216.48 67.11 285.48 67.11 285.48 67.11 216.48 67.11 216.48 67.11"/><rect class="cls-152" x="216.48" y="66.11" width="69" height="1"/><polygon class="cls-153" points="216.48 66.11 285.48 66.11 285.48 66.11 216.48 66.11 216.48 66.11"/><rect class="cls-154" x="216.48" y="65.11" width="69" height="1"/><rect class="cls-155" x="216.48" y="64.11" width="69" height="1"/><polygon class="cls-156" points="216.48 64.11 285.48 64.11 285.48 64.11 216.48 64.11 216.48 64.11"/><rect class="cls-157" x="216.48" y="63.11" width="69" height="1"/><polygon class="cls-158" points="216.48 63.11 285.48 63.11 285.48 63.11 216.48 63.11 216.48 63.11"/><rect class="cls-159" x="216.48" y="62.11" width="69" height="1"/><polygon class="cls-160" points="216.48 62.11 285.48 62.11 285.48 62.11 216.48 62.11 216.48 62.11"/><rect class="cls-161" x="216.48" y="61.11" width="69" height="1"/><polygon class="cls-162" points="216.48 61.11 285.48 61.11 285.48 61.11 216.48 61.11 216.48 61.11"/><rect class="cls-163" x="216.48" y="60.11" width="69" height="1"/><polygon class="cls-164" points="216.48 60.11 285.48 60.11 285.48 60.11 216.48 60.11 216.48 60.11"/><rect class="cls-165" x="216.48" y="59.11" width="69" height="1"/><polygon class="cls-166" points="216.48 59.11 285.48 59.11 285.48 59.11 216.48 59.11 216.48 59.11"/><rect class="cls-167" x="216.48" y="58.11" width="69" height="1"/><polygon class="cls-168" points="216.48 58.11 285.48 58.11 285.48 58.11 216.48 58.11 216.48 58.11"/><rect class="cls-169" x="216.48" y="57.11" width="69" height="1"/><rect class="cls-169" x="216.48" y="32.11" width="69" height="25"/></g><g class="cls-170"><polygon class="cls-127" points="144 84.11 151.12 84.11 144 84.11 144 84.11"/><polygon class="cls-127" points="144.48 83.11 200.48 83.11 200.48 84.11 151.1 84.11 144.48 84.11 144.48 83.11"/><rect class="cls-128" x="144.48" y="81.11" width="56" height="2"/><rect class="cls-129" x="144.48" y="80.11" width="56" height="1"/><rect class="cls-130" x="144.48" y="79.11" width="56" height="1"/><rect class="cls-131" x="144.48" y="78.11" width="56" height="1"/><rect class="cls-132" x="144.48" y="77.11" width="56" height="1"/><rect class="cls-133" x="144.48" y="75.11" width="56" height="2"/><rect class="cls-134" x="144.48" y="74.11" width="56" height="1"/><rect class="cls-135" x="144.48" y="73.11" width="56" height="1"/><rect class="cls-136" x="144.48" y="72.11" width="56" height="1"/><rect class="cls-137" x="144.48" y="70.11" width="56" height="2"/><rect class="cls-138" x="144.48" y="69.11" width="56" height="1"/><rect class="cls-139" x="144.48" y="68.11" width="56" height="1"/><rect class="cls-140" x="144.48" y="67.11" width="56" height="1"/><rect class="cls-141" x="144.48" y="66.11" width="56" height="1"/><rect class="cls-142" x="144.48" y="64.11" width="56" height="2"/><rect class="cls-143" x="144.48" y="63.11" width="56" height="1"/><rect class="cls-144" x="144.48" y="62.11" width="56" height="1"/><rect class="cls-145" x="144.48" y="61.11" width="56" height="1"/><rect class="cls-146" x="144.48" y="59.11" width="56" height="2"/><rect class="cls-147" x="144.48" y="58.11" width="56" height="1"/><rect class="cls-148" x="144.48" y="57.11" width="56" height="1"/><rect class="cls-149" x="144.48" y="56.11" width="56" height="1"/><rect class="cls-150" x="144.48" y="55.11" width="56" height="1"/><rect class="cls-151" x="144.48" y="53.11" width="56" height="2"/><rect class="cls-152" x="144.48" y="52.11" width="56" height="1"/><rect class="cls-153" x="144.48" y="51.11" width="56" height="1"/><rect class="cls-154" x="144.48" y="50.11" width="56" height="1"/><rect class="cls-155" x="144.48" y="49.11" width="56" height="1"/><rect class="cls-156" x="144.48" y="47.11" width="56" height="2"/><rect class="cls-157" x="144.48" y="46.11" width="56" height="1"/><rect class="cls-158" x="144.48" y="45.11" width="56" height="1"/><rect class="cls-159" x="144.48" y="44.11" width="56" height="1"/><rect class="cls-160" x="144.48" y="42.11" width="56" height="2"/><rect class="cls-161" x="144.48" y="41.11" width="56" height="1"/><rect class="cls-162" x="144.48" y="40.11" width="56" height="1"/><rect class="cls-163" x="144.48" y="39.11" width="56" height="1"/><rect class="cls-164" x="144.48" y="38.11" width="56" height="1"/><rect class="cls-165" x="144.48" y="36.11" width="56" height="2"/><rect class="cls-166" x="144.48" y="35.11" width="56" height="1"/><rect class="cls-167" x="144.48" y="34.11" width="56" height="1"/><rect class="cls-168" x="144.48" y="33.11" width="56" height="1"/><polygon class="cls-169" points="179.06 31.11 200.48 31.11 200.48 33.11 144.48 33.11 144.48 31.11 179.06 31.11"/><polygon class="cls-169" points="200.68 31.11 179.06 31.11 200.68 31.11 200.68 31.11"/></g><path d="M271.12,256.89H228.61c-6.11,0-11.08-5.38-11.08-12V209c0-6.48,4.68-11.75,10.65-12,13.51-.56,28.12-0.66,43.09-0.47,6,0.08,10.94,5.46,10.94,12v36.34C282.2,251.51,277.23,256.89,271.12,256.89Zm-14.56-52.44c-9.68,0-19.12.19-28.06,0.56-1.64.07-3,1.86-3,4v35.88c0,2.17,1.41,4,3.08,4h42.51c1.67,0,3.08-1.83,3.08-4V208.54c0-2.15-1.39-4-3-4C266.26,204.48,261.34,204.45,256.56,204.45Z" transform="translate(-77.52 -168.89)"/><g class="cls-171"><polygon class="cls-127" points="67.85 84.11 76.71 84.11 67.85 84.11 67.85 84.11"/><polygon class="cls-127" points="67.48 83.11 128.48 83.11 128.48 84.11 76.71 84.11 67.48 84.11 67.48 83.11"/><rect class="cls-128" x="67.48" y="82.11" width="61" height="1"/><rect class="cls-129" x="67.48" y="80.11" width="61" height="2"/><rect class="cls-130" x="67.48" y="79.11" width="61" height="1"/><rect class="cls-131" x="67.48" y="78.11" width="61" height="1"/><rect class="cls-132" x="67.48" y="77.11" width="61" height="1"/><rect class="cls-133" x="67.48" y="76.11" width="61" height="1"/><rect class="cls-134" x="67.48" y="75.11" width="61" height="1"/><rect class="cls-135" x="67.48" y="73.11" width="61" height="2"/><rect class="cls-136" x="67.48" y="72.11" width="61" height="1"/><rect class="cls-137" x="67.48" y="71.11" width="61" height="1"/><rect class="cls-138" x="67.48" y="70.11" width="61" height="1"/><rect class="cls-139" x="67.48" y="69.11" width="61" height="1"/><rect class="cls-140" x="67.48" y="68.11" width="61" height="1"/><rect class="cls-141" x="67.48" y="66.11" width="61" height="2"/><rect class="cls-142" x="67.48" y="65.11" width="61" height="1"/><rect class="cls-143" x="67.48" y="64.11" width="61" height="1"/><rect class="cls-144" x="67.48" y="63.11" width="61" height="1"/><rect class="cls-145" x="67.48" y="62.11" width="61" height="1"/><rect class="cls-146" x="67.48" y="61.11" width="61" height="1"/><rect class="cls-147" x="67.48" y="59.11" width="61" height="2"/><rect class="cls-148" x="67.48" y="58.11" width="61" height="1"/><rect class="cls-149" x="67.48" y="57.11" width="61" height="1"/><rect class="cls-150" x="67.48" y="56.11" width="61" height="1"/><rect class="cls-151" x="67.48" y="55.11" width="61" height="1"/><rect class="cls-152" x="67.48" y="54.11" width="61" height="1"/><rect class="cls-153" x="67.48" y="53.11" width="61" height="1"/><rect class="cls-154" x="67.48" y="51.11" width="61" height="2"/><rect class="cls-155" x="67.48" y="50.11" width="61" height="1"/><rect class="cls-156" x="67.48" y="49.11" width="61" height="1"/><rect class="cls-157" x="67.48" y="48.11" width="61" height="1"/><rect class="cls-158" x="67.48" y="47.11" width="61" height="1"/><rect class="cls-159" x="67.48" y="46.11" width="61" height="1"/><rect class="cls-160" x="67.48" y="44.11" width="61" height="2"/><rect class="cls-161" x="67.48" y="43.11" width="61" height="1"/><rect class="cls-162" x="67.48" y="42.11" width="61" height="1"/><rect class="cls-163" x="67.48" y="41.11" width="61" height="1"/><rect class="cls-164" x="67.48" y="40.11" width="61" height="1"/><rect class="cls-165" x="67.48" y="39.11" width="61" height="1"/><rect class="cls-166" x="67.48" y="37.11" width="61" height="2"/><rect class="cls-167" x="67.48" y="36.11" width="61" height="1"/><rect class="cls-168" x="67.48" y="35.11" width="61" height="1"/><rect class="cls-169" x="67.48" y="34.11" width="61" height="1"/><polygon class="cls-169" points="128.48 34.11 67.48 34.11 67.48 34.11 128.48 34.11 128.48 34.11"/></g><path d="M198.44,256.89H154.22a10.85,10.85,0,0,1-9.22-5.33,12.84,12.84,0,0,1-.51-12.44l3.73-7.39c9.13-18.09,25.52-30.12,43.84-32.19q2.54-.29,5.34-0.56a10.5,10.5,0,0,1,8.15,2.76,12.39,12.39,0,0,1,4,9.19v34C209.52,251.51,204.55,256.89,198.44,256.89Zm0-50h-0.23q-2.73.27-5.22,0.55c-15.63,1.76-29.69,12.17-37.6,27.85l-3.73,7.39a4.79,4.79,0,0,0,.18,4.64,2.91,2.91,0,0,0,2.41,1.52h44.22c1.67,0,3.08-1.83,3.08-4v-34a4.38,4.38,0,0,0-1.34-3.27A2.64,2.64,0,0,0,198.42,206.93Z" transform="translate(-77.52 -168.89)"/><path class="cls-172" d="M326,256.74a4,4,0,0,1-2.83-6.83l13.15-13.15a4,4,0,0,1,5.66,5.66l-13.15,13.15A4,4,0,0,1,326,256.74Z" transform="translate(-77.52 -168.89)"/><path d="M81.52,320.89v12h64a47.92,47.92,0,0,1,1.57-12H81.52Z" transform="translate(-77.52 -168.89)"/><path d="M145.52,336.89h-64a4,4,0,0,1-4-4v-12a4,4,0,0,1,4-4H147.1a4,4,0,0,1,3.87,5,44.14,44.14,0,0,0-1.45,11A4,4,0,0,1,145.52,336.89Zm-60-8h56.17q0.16-2,.49-4H85.52v4Z" transform="translate(-77.52 -168.89)"/><path d="M506.22,269.36h-8c0-9.57-6.47-17.69-15-18.89-33.74-4.73-46.57-6.07-105.89-9.59a4,4,0,0,1-2.86-1.46l-36-44c-1.6-2-6.06-6.53-12.9-6.53h-128c-31.71,0-53,23.24-58.89,37.89-5.76,14.21-12.08,29.44-12.14,29.59l-7.39-3.07c0.06-.15,6.37-15.35,12.12-29.53,7-17.24,30.41-42.89,66.3-42.89h128c10.27,0,16.78,6.63,19.1,9.47L379.51,233c58.12,3.46,71.12,4.83,104.78,9.55C496.79,244.3,506.22,255.83,506.22,269.36Z" transform="translate(-77.52 -168.89)"/><path d="M489.52,332.89h-8a44,44,0,1,0-88,0h-8A52,52,0,1,1,489.52,332.89Z" transform="translate(-77.52 -168.89)"/><path d="M245.52,332.89h-8a44,44,0,0,0-88,0h-8A52,52,0,0,1,245.52,332.89Z" transform="translate(-77.52 -168.89)"/><circle class="cls-125" cx="116" cy="164" r="32"/><path d="M193.52,368.89a36,36,0,1,1,36-36A36,36,0,0,1,193.52,368.89Zm0-64a28,28,0,1,0,28,28A28,28,0,0,0,193.52,304.89Z" transform="translate(-77.52 -168.89)"/><path d="M201,308.36a32,32,0,0,0-26,50.58,32,32,0,0,0,44.62-44.62A31.84,31.84,0,0,0,201,308.36Z" transform="translate(-77.52 -168.89)"/><circle class="cls-4" cx="116" cy="164" r="14"/><circle cx="116" cy="164" r="5"/><circle class="cls-125" cx="360" cy="164" r="32"/><path d="M437.52,368.89a36,36,0,1,1,36-36A36,36,0,0,1,437.52,368.89Zm0-64a28,28,0,1,0,28,28A28,28,0,0,0,437.52,304.89Z" transform="translate(-77.52 -168.89)"/><path d="M240,320.89a47.92,47.92,0,0,1,1.57,12h148a47.92,47.92,0,0,1,1.57-12H240Z" transform="translate(-77.52 -168.89)"/><path d="M389.52,336.89h-148a4,4,0,0,1-4-4,44.17,44.17,0,0,0-1.45-11,4,4,0,0,1,3.87-5H391.1a4,4,0,0,1,3.87,5,44.18,44.18,0,0,0-1.45,11A4,4,0,0,1,389.52,336.89Zm-144.17-8H385.69q0.16-2,.49-4H244.87Q245.19,326.9,245.36,328.89Z" transform="translate(-77.52 -168.89)"/><path d="M484,320.89a47.92,47.92,0,0,1,1.57,12h20v-12H484Z" transform="translate(-77.52 -168.89)"/><path d="M505.52,336.89h-20a4,4,0,0,1-4-4,44.12,44.12,0,0,0-1.45-11,4,4,0,0,1,3.87-5h21.57a4,4,0,0,1,4,4v12A4,4,0,0,1,505.52,336.89Zm-16.17-8h12.17v-4H488.87Q489.19,326.9,489.36,328.89Z" transform="translate(-77.52 -168.89)"/><path d="M505.52,368.89h-12a4,4,0,0,1,0-8h12A4,4,0,0,1,505.52,368.89Z" transform="translate(-77.52 -168.89)"/><path d="M93.52,368.89h-12a4,4,0,0,1,0-8h12A4,4,0,1,1,93.52,368.89Z" transform="translate(-77.52 -168.89)"/><path d="M88,417.6h13.34a2,2,0,0,1,2.26,2.26v5a2,2,0,0,1-2.26,2.26H80.74a2,2,0,0,1-2.26-2.26V392.14a2,2,0,0,1,2.26-2.26h5A2,2,0,0,1,88,392.14V417.6Z" transform="translate(-77.52 -168.89)"/><path d="M137.36,389.87a2,2,0,0,1,2.26,2.26v32.71a2,2,0,0,1-2.26,2.26h-5a2,2,0,0,1-2.26-2.26V392.14a2,2,0,0,1,2.26-2.26h5Z" transform="translate(-77.52 -168.89)"/><path d="M169,427.11a2,2,0,0,1-2.26-2.26V392.14a2,2,0,0,1,2.26-2.26h14a12,12,0,0,1,8.05,2.82,11.25,11.25,0,0,1,2.47,2.92,10.93,10.93,0,0,1,1.21,5.28v0.05a8.61,8.61,0,0,1-1.16,4.18,4.83,4.83,0,0,1-2.31,2.31,7,7,0,0,1,3.17,2.16,9.72,9.72,0,0,1,2.42,5.74,12.16,12.16,0,0,1-.81,4.93,11.19,11.19,0,0,1-3.57,4.73,11,11,0,0,1-6.79,2.11H169Zm6.79-28.79v6.24h6.69a3.83,3.83,0,0,0,2.26-.75,2.81,2.81,0,0,0,1.11-2.21c0-1.66-.86-3.27-2.87-3.27h-7.2Zm0,13.94v6.24h8.25a3,3,0,0,0,3.27-3.12c0-2.16-1.36-3.12-3.57-3.12h-8Z" transform="translate(-77.52 -168.89)"/><path d="M252,402.1a12.28,12.28,0,0,1-4.23,9.61,4.78,4.78,0,0,1-1.06.71,5.09,5.09,0,0,0-.6.25l6.54,11.83c1,1.61,0,2.62-1.76,2.62H245.4a2.64,2.64,0,0,1-2.62-1.76l-5.94-11.52h-4.58v11a2,2,0,0,1-2.26,2.26h-5a2,2,0,0,1-2.26-2.26V392.14a2,2,0,0,1,2.26-2.26h15.3a11.9,11.9,0,0,1,8.05,2.82,11.3,11.3,0,0,1,2.47,3.52A14.75,14.75,0,0,1,252,402.1Zm-9.21,0a2.81,2.81,0,0,0-3-3.07h-7.55v6.24h7.2A3.2,3.2,0,0,0,242.84,402.1Z" transform="translate(-77.52 -168.89)"/><path d="M304.48,424.85a2,2,0,0,1-2.26,2.26H280.63a2,2,0,0,1-2.26-2.26V392.14a2,2,0,0,1,2.26-2.26h21.59a2,2,0,0,1,2.26,2.26v5a2,2,0,0,1-2.26,2.26H287.88v4.68h10.57a2,2,0,0,1,2.26,2.26v4.28a2,2,0,0,1-2.26,2.26H287.88v4.73h14.34a2,2,0,0,1,2.26,2.26v5Z" transform="translate(-77.52 -168.89)"/><path d="M342.13,427.11a2,2,0,0,1-2.26-2.26V399.38h-7.75a2,2,0,0,1-2.26-2.26v-5a2,2,0,0,1,2.26-2.26h25a2,2,0,0,1,2.26,2.26v5a2,2,0,0,1-2.26,2.26h-7.75v25.46a2,2,0,0,1-2.26,2.26h-5Z" transform="translate(-77.52 -168.89)"/><path d="M399,389.87a2.6,2.6,0,0,1,2.62,1.81l11.47,32.81c0.55,1.61-.1,2.62-1.86,2.62h-5.38a2.45,2.45,0,0,1-2.57-1.86l-1.56-4.58H390.64l-1.56,4.58a2.54,2.54,0,0,1-2.62,1.86H381c-1.76,0-2.42-1-1.86-2.62l11.52-32.81a2.54,2.54,0,0,1,2.57-1.81H399Zm0.6,22.54-3.47-10.32L393,412.42h6.64Z" transform="translate(-77.52 -168.89)"/><path d="M455.56,399.89l5.79-8.56a3.22,3.22,0,0,1,2.77-1.46h6.44c1.86,0,2.52,1.21,1.46,2.77l-10.72,15.7,10.87,16c1.06,1.56.4,2.77-1.46,2.77h-6.44a3.22,3.22,0,0,1-2.77-1.46l-5.94-8.81-6,8.81a3.22,3.22,0,0,1-2.77,1.46h-6.44c-1.86,0-2.52-1.21-1.46-2.77l10.87-16-10.72-15.7c-1.06-1.56-.4-2.77,1.46-2.77H447a3.22,3.22,0,0,1,2.77,1.46Z" transform="translate(-77.52 -168.89)"/><path d="M506.19,389.87a2,2,0,0,1,2.26,2.26v32.71a2,2,0,0,1-2.26,2.26h-5a2,2,0,0,1-2.26-2.26V392.14a2,2,0,0,1,2.26-2.26h5Z" transform="translate(-77.52 -168.89)"/><path d="M445,308.36a32,32,0,0,0-26,50.58,32,32,0,0,0,44.62-44.62A31.84,31.84,0,0,0,445,308.36Z" transform="translate(-77.52 -168.89)"/><circle class="cls-4" cx="360" cy="164" r="14"/><circle cx="360" cy="164" r="5"/><path class="cls-172" d="M307.92,243.29h3.2c2.22-5.3,2.89-9.49,3.2-16h6.21a1,1,0,0,0,.44-1.87l-5.85-2.93,0.8-6.21a1,1,0,0,0-1-1H293.52v29.6c0,4.42,3.17,8,7.09,8h7.31v-9.6Z" transform="translate(-77.52 -168.89)"/><path d="M354,256.89H300.61c-6.11,0-11.08-5.38-11.08-12V209.23a12.43,12.43,0,0,1,3.62-8.84,10.81,10.81,0,0,1,7.78-3.15c3.09,0.06,5.84.08,8.35,0.1,5.92,0,10.59.09,15.21,0.54,3.25,0.32,7.28,2.51,10,5.45,2.32,2.48,25.6,31,28.25,34.23a3.89,3.89,0,0,1,.23.32,12.71,12.71,0,0,1,.58,13.06A10.83,10.83,0,0,1,354,256.89Zm-53.26-51.66a2.83,2.83,0,0,0-2,.86,4.39,4.39,0,0,0-1.23,3.13v35.66c0,2.17,1.41,4,3.08,4H354a3,3,0,0,0,2.53-1.73,4.82,4.82,0,0,0-.1-4.71c-10.33-12.65-26.14-31.93-27.75-33.66a9.87,9.87,0,0,0-5-3c-4.26-.42-8.77-0.46-14.49-0.51-2.53,0-5.31,0-8.44-.1h0Z" transform="translate(-77.52 -168.89)"/><rect x="242.64" y="80" width="53.38" height="8"/></g></g></svg>