<?xml version="1.0" encoding="utf-8"?>
<!-- Generator: Adobe Illustrator 19.2.1, SVG Export Plug-In . SVG Version: 6.00 Build 0)  -->
<svg version="1.1" xmlns="http://www.w3.org/2000/svg" xmlns:xlink="http://www.w3.org/1999/xlink" x="0px" y="0px"
	 viewBox="0 0 300 26.2" style="enable-background:new 0 0 300 26.2;" xml:space="preserve">
<style type="text/css">
	.st0{display:none;}
	.st1{fill:#FFFFFF;}
</style>
<g id="Layer_1" class="st0">
</g>
<g id="Layer_2">
	<g>
		<g>
			<path class="st1" d="M6.7,19.5H16c1,0,1.6,0.6,1.6,1.6v3.5c0,1-0.6,1.6-1.6,1.6H1.6c-1,0-1.6-0.6-1.6-1.6V1.7
				c0-1,0.6-1.6,1.6-1.6h3.5c1,0,1.6,0.6,1.6,1.6V19.5z"/>
		</g>
		<g>
			<path class="st1" d="M41.1,0.1c1,0,1.6,0.6,1.6,1.6v22.8c0,1-0.6,1.6-1.6,1.6h-3.5c-1,0-1.6-0.6-1.6-1.6V1.7c0-1,0.6-1.6,1.6-1.6
				H41.1z"/>
		</g>
		<g>
			<path class="st1" d="M63.2,26.1c-1,0-1.6-0.6-1.6-1.6V1.7c0-1,0.6-1.6,1.6-1.6H73c2.2,0,4.1,0.7,5.6,2c0.6,0.6,1.3,1.1,1.7,2
				c0.5,0.9,0.8,2.1,0.8,3.7v0.1c0,1.1-0.3,2.1-0.8,2.9c-0.5,0.8-1.1,1.5-1.6,1.6c0.5,0.1,1.4,0.6,2.2,1.5c0.8,1,1.5,2.3,1.7,4
				c0,1-0.1,2.2-0.6,3.4c-0.5,1.3-1.3,2.4-2.5,3.3c-1.2,0.9-2.7,1.5-4.7,1.5L63.2,26.1L63.2,26.1z M67.9,6v4.3h4.7
				c0.6,0,1.1-0.2,1.6-0.6C74.6,9.4,75,8.9,75,8.2c0-1.2-0.6-2.3-2-2.3L67.9,6L67.9,6z M67.9,15.8v4.3h5.8c1.3,0,2.3-0.7,2.3-2.2
				c0-1.5-1-2.2-2.5-2.2H67.9z"/>
		</g>
		<g>
			<path class="st1" d="M121.1,8.6c0,2.6-1,5.2-2.9,6.7c-0.3,0.3-0.6,0.4-0.8,0.5C117.1,16,117,16,117,16l4.5,8.2
				c0.7,1.1,0,1.8-1.3,1.8h-3.8c-1,0-1.4-0.4-1.8-1.3l-4.1-8h-3.2v7.7c0,1-0.6,1.6-1.6,1.6h-3.5c-1,0-1.6-0.6-1.6-1.6V1.7
				c0-1,0.6-1.6,1.6-1.6h10.7c2.2,0,4.1,0.7,5.6,2c0.6,0.6,1.3,1.4,1.7,2.4C120.7,5.6,121.1,7,121.1,8.6z M114.7,8.6
				c0-1.3-0.7-2.2-2.1-2.2h-5.2v4.3h5C113.6,10.9,114.7,10,114.7,8.6z"/>
		</g>
		<g>
			<path class="st1" d="M157.7,24.6c0,1-0.6,1.6-1.6,1.6H141c-1,0-1.6-0.6-1.6-1.6V1.7c0-1,0.6-1.6,1.6-1.6h15.1
				c1,0,1.6,0.6,1.6,1.6v3.5c0,1-0.6,1.6-1.6,1.6h-10v3.3h7.4c1,0,1.6,0.6,1.6,1.6v3c0,1-0.6,1.6-1.6,1.6h-7.4v3.3h10
				c1,0,1.6,0.6,1.6,1.6V24.6z"/>
		</g>
		<g>
			<path class="st1" d="M183.9,26.1c-1,0-1.6-0.6-1.6-1.6V6.7h-5.4c-1,0-1.6-0.6-1.6-1.6V1.6c0-1,0.6-1.6,1.6-1.6h17.4
				c1,0,1.6,0.6,1.6,1.6v3.5c0,1-0.6,1.6-1.6,1.6h-5.4v17.8c0,1-0.6,1.6-1.6,1.6H183.9z"/>
		</g>
		<g>
			<path class="st1" d="M223.6,0.1c0.9,0,1.5,0.4,1.8,1.3l8,22.9c0.4,1.1-0.1,1.8-1.3,1.8h-3.8c-0.9,0-1.5-0.4-1.8-1.3l-1.1-3.2
				h-7.7l-1.1,3.2c-0.3,0.9-0.9,1.3-1.8,1.3h-3.7c-1.3,0-1.7-0.7-1.3-1.8l8-22.9c0.3-0.8,0.9-1.3,1.8-1.3H223.6z M224,15.8l-2.4-7.2
				l-2.2,7.2H224z"/>
		</g>
		<g>
			<path class="st1" d="M263,7.1l4-6c0.5-0.7,1.1-1,2-1h4.5c1.3,0,1.7,0.8,1,2l-7.5,11l7.6,11.2c0.8,1.1,0.3,2-1,2h-4.5
				c-0.8,0-1.5-0.3-2-1l-4.1-6.1l-4.2,6.1c-0.5,0.7-1.1,1-2,1h-4.5c-1.3,0-1.7-0.8-1-2l7.6-11.2l-7.5-11c-0.8-1.1-0.3-2,1-2h4.5
				c0.8,0,1.5,0.3,2,1L263,7.1z"/>
		</g>
		<g>
			<path class="st1" d="M298.4,0.1c1,0,1.6,0.6,1.6,1.6v22.8c0,1-0.6,1.6-1.6,1.6h-3.5c-1,0-1.6-0.6-1.6-1.6V1.7
				c0-1,0.6-1.6,1.6-1.6H298.4z"/>
		</g>
	</g>
</g>
</svg>
